<svg width="288" height="251" viewBox="0 0 288 251" fill="none" xmlns="http://www.w3.org/2000/svg">
<path d="M288 250.855H0C3.15569 241.059 8.98326 232.745 17.1987 230.279C29.2166 226.676 41.9343 236.581 53.9252 232.857C60.738 230.744 66.101 224.584 71.7369 219.468C92.9973 200.168 122.134 194.465 147.293 204.679C160.444 210.016 172.427 219.349 185.899 223.318C203.319 228.452 221.536 224.195 239.45 223.493C256.897 222.811 281.895 231.469 288 250.855Z" fill="#F3F5FD"/>
<path d="M245.209 226.751C248.693 225.751 251.316 222.633 252.358 219.162C253.4 215.69 253.033 211.922 252.016 208.443C251.185 205.604 249.926 202.859 249.616 199.917C248.583 190.121 258.086 180.111 253.613 171.336C252.168 168.497 249.37 166.279 248.87 163.133C248.457 160.531 249.739 158.003 250.376 155.447C251.253 151.929 250.809 147.938 248.527 145.121C246.244 142.304 241.932 141.073 238.787 142.877C234.674 145.237 234.317 151.061 235.374 155.684C236.432 160.306 238.391 165.062 237.099 169.624C235.868 173.973 231.861 177.247 231.143 181.71C230.544 185.419 232.357 189.036 233.154 192.708C234.404 198.479 233.131 204.461 233.077 210.366C233.022 216.27 234.687 222.893 245.209 226.751Z" fill="#8DDBE0"/>
<path opacity="0.1" d="M245.209 226.751C248.693 225.751 251.316 222.633 252.358 219.162C253.4 215.69 253.033 211.922 252.016 208.443C251.185 205.604 249.926 202.859 249.616 199.917C248.583 190.121 258.086 180.111 253.613 171.336C252.168 168.497 249.37 166.279 248.87 163.133C248.457 160.531 249.739 158.003 250.376 155.447C251.253 151.929 250.809 147.938 248.527 145.121C246.244 142.304 241.932 141.073 238.787 142.877C234.674 145.237 234.317 151.061 235.374 155.684C236.432 160.306 238.391 165.062 237.099 169.624C235.868 173.973 231.861 177.247 231.143 181.71C230.544 185.419 232.357 189.036 233.154 192.708C234.404 198.479 233.131 204.461 233.077 210.366C233.022 216.27 234.687 222.893 245.209 226.751Z" fill="black"/>
<path d="M250.586 227.312C252.659 226.653 254.52 225.454 255.977 223.838C257.434 222.223 258.434 220.248 258.876 218.118C259.558 214.604 258.721 210.658 260.643 207.637C263.249 203.547 265.921 203.085 269.166 199.479C274.154 193.936 274.329 191.48 273.999 181.213C273.86 176.871 279.856 171.973 277.744 167.8C275.884 164.125 270.229 164.106 267.023 166.692C263.816 169.278 262.408 173.424 261.01 177.301C259.613 181.178 257.852 185.276 254.31 187.38C252.186 188.641 249.405 189.224 248.232 191.399C247.291 193.145 247.764 195.278 248.143 197.226C249.096 202.124 248.857 208.099 244.746 210.928C242.892 212.204 240.463 212.644 238.939 214.3C237.431 215.938 237.188 218.364 237.29 220.589C237.491 224.864 238.669 229.036 240.733 232.784" fill="#8DDBE0"/>
<path d="M245.628 230.723C249.329 226.495 249.852 219.796 246.853 215.044C244.337 211.057 239.647 208.311 238.662 203.701C237.785 199.594 240.217 195.35 239.489 191.215C238.697 186.718 234.543 183.766 231.243 180.611C230.384 179.843 229.645 178.951 229.051 177.964C227.6 175.352 228.005 172.147 227.511 169.2C226.568 163.554 221.917 158.549 216.27 157.615C211.318 156.797 207.771 159.642 207.771 164.881C207.771 171.088 212.42 173.747 214.792 176.559C218.2 180.628 220.008 185.798 219.879 191.104C219.711 197.029 217.188 203.338 219.884 208.617C221.862 212.491 226.087 214.557 229.407 217.368C231.915 219.517 233.957 222.157 235.407 225.126C236.857 228.094 237.684 231.328 237.837 234.627" fill="#8DDBE0"/>
<path d="M259.52 220.991H229.657V250.855H259.52V220.991Z" fill="#1D2D83"/>
<path opacity="0.42" d="M259.52 226.815H229.657V232.643H259.52V226.815Z" fill="white"/>
<path d="M198.392 3.77423H93.4162C85.3774 3.77423 78.8607 10.2909 78.8607 18.3297V232.525C78.8607 240.564 85.3774 247.08 93.4162 247.08H198.392C206.43 247.08 212.947 240.564 212.947 232.525V18.3297C212.947 10.2909 206.43 3.77423 198.392 3.77423Z" fill="white"/>
<path d="M198.391 250.855H93.4153C88.5555 250.849 83.8965 248.916 80.4601 245.48C77.0238 242.043 75.0908 237.384 75.0851 232.524V18.3301C75.0908 13.4703 77.0239 8.81109 80.4604 5.37472C83.897 1.93836 88.5562 0.00543432 93.4161 0L198.392 0C203.252 0.00566071 207.911 1.93868 211.347 5.37502C214.783 8.81137 216.716 13.4704 216.722 18.3301V232.524C216.716 237.384 214.783 242.044 211.347 245.48C207.91 248.916 203.251 250.849 198.391 250.855ZM93.4161 7.54851C90.5582 7.55213 87.8184 8.68903 85.7976 10.7099C83.7767 12.7307 82.6398 15.4705 82.6362 18.3284V232.524C82.6397 235.382 83.7766 238.122 85.7974 240.143C87.8183 242.164 90.5582 243.301 93.4161 243.304H198.392C201.25 243.301 203.99 242.164 206.01 240.143C208.031 238.122 209.168 235.382 209.172 232.524V18.3301C209.168 15.4723 208.031 12.7325 206.01 10.7117C203.99 8.69089 201.25 7.55395 198.392 7.55022L93.4161 7.54851Z" fill="#1D2D83"/>
<path d="M122.919 3.77423H168.889V12.6929C168.889 13.5697 168.716 14.4379 168.381 15.2479C168.045 16.0579 167.553 16.7939 166.933 17.4139C166.313 18.0338 165.577 18.5256 164.767 18.8611C163.957 19.1966 163.089 19.3692 162.212 19.3692H129.594C127.824 19.3692 126.125 18.6658 124.873 17.4137C123.621 16.1617 122.918 14.4636 122.918 12.6929V3.77423H122.919Z" fill="#1D2D83"/>
<path d="M124.614 55.2428C127.419 55.2428 129.694 52.9683 129.694 50.1626C129.694 47.3568 127.419 45.0823 124.614 45.0823C121.808 45.0823 119.533 47.3568 119.533 50.1626C119.533 52.9683 121.808 55.2428 124.614 55.2428Z" fill="#C1D8ED"/>
<path d="M110.308 55.2428C113.113 55.2428 115.388 52.9683 115.388 50.1626C115.388 47.3568 113.113 45.0823 110.308 45.0823C107.502 45.0823 105.227 47.3568 105.227 50.1626C105.227 52.9683 107.502 55.2428 110.308 55.2428Z" fill="#262626"/>
<path d="M96.002 55.2428C98.8077 55.2428 101.082 52.9683 101.082 50.1625C101.082 47.3568 98.8077 45.0823 96.002 45.0823C93.1963 45.0823 90.9218 47.3568 90.9218 50.1625C90.9218 52.9683 93.1963 55.2428 96.002 55.2428Z" fill="#C1D8ED"/>
<path d="M138.92 55.2428C141.725 55.2428 144 52.9683 144 50.1626C144 47.3568 141.725 45.0823 138.92 45.0823C136.114 45.0823 133.839 47.3568 133.839 50.1626C133.839 52.9683 136.114 55.2428 138.92 55.2428Z" fill="#C1D8ED"/>
<path d="M153.226 55.2428C156.032 55.2428 158.306 52.9683 158.306 50.1626C158.306 47.3568 156.032 45.0823 153.226 45.0823C150.42 45.0823 148.146 47.3568 148.146 50.1626C148.146 52.9683 150.42 55.2428 153.226 55.2428Z" fill="#DEE8F5"/>
<path d="M124.614 69.1981C127.419 69.1981 129.694 66.9236 129.694 64.1178C129.694 61.3121 127.419 59.0376 124.614 59.0376C121.808 59.0376 119.533 61.3121 119.533 64.1178C119.533 66.9236 121.808 69.1981 124.614 69.1981Z" fill="#C1D8ED"/>
<path d="M110.308 69.1981C113.113 69.1981 115.388 66.9236 115.388 64.1178C115.388 61.3121 113.113 59.0376 110.308 59.0376C107.502 59.0376 105.227 61.3121 105.227 64.1178C105.227 66.9236 107.502 69.1981 110.308 69.1981Z" fill="#DEE8F5"/>
<path d="M96.002 69.1981C98.8077 69.1981 101.082 66.9236 101.082 64.1178C101.082 61.3121 98.8077 59.0376 96.002 59.0376C93.1963 59.0376 90.9218 61.3121 90.9218 64.1178C90.9218 66.9236 93.1963 69.1981 96.002 69.1981Z" fill="#DEE8F5"/>
<path d="M138.92 69.1981C141.725 69.1981 144 66.9236 144 64.1178C144 61.3121 141.725 59.0376 138.92 59.0376C136.114 59.0376 133.839 61.3121 133.839 64.1178C133.839 66.9236 136.114 69.1981 138.92 69.1981Z" fill="#0CBC8B"/>
<path d="M153.226 69.1981C156.032 69.1981 158.306 66.9236 158.306 64.1178C158.306 61.3121 156.032 59.0376 153.226 59.0376C150.42 59.0376 148.146 61.3121 148.146 64.1178C148.146 66.9236 150.42 69.1981 153.226 69.1981Z" fill="#C1D8ED"/>
<path d="M124.614 83.1534C127.419 83.1534 129.694 80.8789 129.694 78.0731C129.694 75.2674 127.419 72.9929 124.614 72.9929C121.808 72.9929 119.533 75.2674 119.533 78.0731C119.533 80.8789 121.808 83.1534 124.614 83.1534Z" fill="#0CBC8B"/>
<path d="M110.308 83.1534C113.113 83.1534 115.388 80.8789 115.388 78.0731C115.388 75.2674 113.113 72.9929 110.308 72.9929C107.502 72.9929 105.227 75.2674 105.227 78.0731C105.227 80.8789 107.502 83.1534 110.308 83.1534Z" fill="#C1D8ED"/>
<path d="M96.002 83.1534C98.8077 83.1534 101.082 80.8789 101.082 78.0731C101.082 75.2674 98.8077 72.9929 96.002 72.9929C93.1963 72.9929 90.9218 75.2674 90.9218 78.0731C90.9218 80.8789 93.1963 83.1534 96.002 83.1534Z" fill="#262626"/>
<path d="M138.92 83.1534C141.725 83.1534 144 80.8789 144 78.0731C144 75.2674 141.725 72.9929 138.92 72.9929C136.114 72.9929 133.839 75.2674 133.839 78.0731C133.839 80.8789 136.114 83.1534 138.92 83.1534Z" fill="#262626"/>
<path d="M153.226 83.1534C156.032 83.1534 158.306 80.8789 158.306 78.0731C158.306 75.2674 156.032 72.9929 153.226 72.9929C150.42 72.9929 148.146 75.2674 148.146 78.0731C148.146 80.8789 150.42 83.1534 153.226 83.1534Z" fill="#0CBC8B"/>
<path d="M124.614 97.1086C127.419 97.1086 129.694 94.8341 129.694 92.0284C129.694 89.2226 127.419 86.9481 124.614 86.9481C121.808 86.9481 119.533 89.2226 119.533 92.0284C119.533 94.8341 121.808 97.1086 124.614 97.1086Z" fill="#262626"/>
<path d="M110.308 97.1086C113.113 97.1086 115.388 94.8341 115.388 92.0284C115.388 89.2226 113.113 86.9481 110.308 86.9481C107.502 86.9481 105.227 89.2226 105.227 92.0284C105.227 94.8341 107.502 97.1086 110.308 97.1086Z" fill="#DEE8F5"/>
<path d="M96.002 97.1086C98.8077 97.1086 101.082 94.8341 101.082 92.0284C101.082 89.2227 98.8077 86.9482 96.002 86.9482C93.1963 86.9482 90.9218 89.2227 90.9218 92.0284C90.9218 94.8341 93.1963 97.1086 96.002 97.1086Z" fill="#0CBC8B"/>
<path d="M138.92 97.1086C141.725 97.1086 144 94.8341 144 92.0284C144 89.2226 141.725 86.9481 138.92 86.9481C136.114 86.9481 133.839 89.2226 133.839 92.0284C133.839 94.8341 136.114 97.1086 138.92 97.1086Z" fill="#C1D8ED"/>
<path d="M153.226 97.1086C156.032 97.1086 158.306 94.8341 158.306 92.0284C158.306 89.2226 156.032 86.9481 153.226 86.9481C150.42 86.9481 148.146 89.2226 148.146 92.0284C148.146 94.8341 150.42 97.1086 153.226 97.1086Z" fill="#DEE8F5"/>
<path d="M124.614 111.064C127.419 111.064 129.694 108.789 129.694 105.984C129.694 103.178 127.419 100.903 124.614 100.903C121.808 100.903 119.533 103.178 119.533 105.984C119.533 108.789 121.808 111.064 124.614 111.064Z" fill="#C1D8ED"/>
<path d="M110.308 111.064C113.113 111.064 115.388 108.789 115.388 105.984C115.388 103.178 113.113 100.903 110.308 100.903C107.502 100.903 105.227 103.178 105.227 105.984C105.227 108.789 107.502 111.064 110.308 111.064Z" fill="#262626"/>
<path d="M96.002 111.064C98.8077 111.064 101.082 108.789 101.082 105.984C101.082 103.178 98.8077 100.903 96.002 100.903C93.1963 100.903 90.9218 103.178 90.9218 105.984C90.9218 108.789 93.1963 111.064 96.002 111.064Z" fill="#C1D8ED"/>
<path d="M138.92 111.064C141.725 111.064 144 108.789 144 105.984C144 103.178 141.725 100.903 138.92 100.903C136.114 100.903 133.839 103.178 133.839 105.984C133.839 108.789 136.114 111.064 138.92 111.064Z" fill="#0CBC8B"/>
<path d="M153.226 111.064C156.032 111.064 158.306 108.789 158.306 105.984C158.306 103.178 156.032 100.903 153.226 100.903C150.42 100.903 148.146 103.178 148.146 105.984C148.146 108.789 150.42 111.064 153.226 111.064Z" fill="#262626"/>
<path d="M124.614 125.019C127.419 125.019 129.694 122.745 129.694 119.939C129.694 117.133 127.419 114.859 124.614 114.859C121.808 114.859 119.533 117.133 119.533 119.939C119.533 122.745 121.808 125.019 124.614 125.019Z" fill="#C1D8ED"/>
<path d="M138.92 125.019C141.725 125.019 144 122.745 144 119.939C144 117.133 141.725 114.859 138.92 114.859C136.114 114.859 133.839 117.133 133.839 119.939C133.839 122.745 136.114 125.019 138.92 125.019Z" fill="#DEE8F5"/>
<path d="M153.226 125.019C156.032 125.019 158.306 122.745 158.306 119.939C158.306 117.133 156.032 114.859 153.226 114.859C150.42 114.859 148.146 117.133 148.146 119.939C148.146 122.745 150.42 125.019 153.226 125.019Z" fill="#DEE8F5"/>
<path d="M110.308 125.019C113.113 125.019 115.388 122.745 115.388 119.939C115.388 117.133 113.113 114.859 110.308 114.859C107.502 114.859 105.227 117.133 105.227 119.939C105.227 122.745 107.502 125.019 110.308 125.019Z" fill="#0CBC8B"/>
<path d="M96.002 125.019C98.8077 125.019 101.082 122.745 101.082 119.939C101.082 117.133 98.8077 114.859 96.002 114.859C93.1963 114.859 90.9218 117.133 90.9218 119.939C90.9218 122.745 93.1963 125.019 96.002 125.019Z" fill="#C1D8ED"/>
<path d="M124.614 138.974C127.419 138.974 129.694 136.7 129.694 133.894C129.694 131.088 127.419 128.814 124.614 128.814C121.808 128.814 119.533 131.088 119.533 133.894C119.533 136.7 121.808 138.974 124.614 138.974Z" fill="#0CBC8B"/>
<path d="M138.92 138.974C141.725 138.974 144 136.7 144 133.894C144 131.088 141.725 128.814 138.92 128.814C136.114 128.814 133.839 131.088 133.839 133.894C133.839 136.7 136.114 138.974 138.92 138.974Z" fill="#C1D8ED"/>
<path d="M153.226 138.974C156.032 138.974 158.306 136.7 158.306 133.894C158.306 131.088 156.032 128.814 153.226 128.814C150.42 128.814 148.146 131.088 148.146 133.894C148.146 136.7 150.42 138.974 153.226 138.974Z" fill="#262626"/>
<path d="M110.308 138.974C113.113 138.974 115.388 136.7 115.388 133.894C115.388 131.088 113.113 128.814 110.308 128.814C107.502 128.814 105.227 131.088 105.227 133.894C105.227 136.7 107.502 138.974 110.308 138.974Z" fill="#262626"/>
<path d="M96.002 138.974C98.8077 138.974 101.082 136.7 101.082 133.894C101.082 131.088 98.8077 128.814 96.002 128.814C93.1963 128.814 90.9218 131.088 90.9218 133.894C90.9218 136.7 93.1963 138.974 96.002 138.974Z" fill="#0CBC8B"/>
<path d="M167.193 55.2428C169.999 55.2428 172.274 52.9683 172.274 50.1626C172.274 47.3568 169.999 45.0823 167.193 45.0823C164.388 45.0823 162.113 47.3568 162.113 50.1626C162.113 52.9683 164.388 55.2428 167.193 55.2428Z" fill="#0CBC8B"/>
<path d="M181.5 55.2428C184.305 55.2428 186.58 52.9683 186.58 50.1626C186.58 47.3568 184.305 45.0823 181.5 45.0823C178.694 45.0823 176.419 47.3568 176.419 50.1626C176.419 52.9683 178.694 55.2428 181.5 55.2428Z" fill="#262626"/>
<path d="M195.806 55.2428C198.611 55.2428 200.886 52.9683 200.886 50.1626C200.886 47.3568 198.611 45.0823 195.806 45.0823C193 45.0823 190.725 47.3568 190.725 50.1626C190.725 52.9683 193 55.2428 195.806 55.2428Z" fill="#C1D8ED"/>
<path d="M167.193 69.1981C169.999 69.1981 172.274 66.9236 172.274 64.1178C172.274 61.3121 169.999 59.0376 167.193 59.0376C164.388 59.0376 162.113 61.3121 162.113 64.1178C162.113 66.9236 164.388 69.1981 167.193 69.1981Z" fill="#C1D8ED"/>
<path d="M181.5 69.1981C184.305 69.1981 186.58 66.9236 186.58 64.1178C186.58 61.3121 184.305 59.0376 181.5 59.0376C178.694 59.0376 176.419 61.3121 176.419 64.1178C176.419 66.9236 178.694 69.1981 181.5 69.1981Z" fill="#DEE8F5"/>
<path d="M195.806 69.1981C198.611 69.1981 200.886 66.9236 200.886 64.1178C200.886 61.3121 198.611 59.0376 195.806 59.0376C193 59.0376 190.725 61.3121 190.725 64.1178C190.725 66.9236 193 69.1981 195.806 69.1981Z" fill="#DEE8F5"/>
<path d="M167.193 83.1534C169.999 83.1534 172.274 80.8789 172.274 78.0731C172.274 75.2674 169.999 72.9929 167.193 72.9929C164.388 72.9929 162.113 75.2674 162.113 78.0731C162.113 80.8789 164.388 83.1534 167.193 83.1534Z" fill="#DEE8F5"/>
<path d="M181.5 83.1534C184.305 83.1534 186.58 80.8789 186.58 78.0731C186.58 75.2674 184.305 72.9929 181.5 72.9929C178.694 72.9929 176.419 75.2674 176.419 78.0731C176.419 80.8789 178.694 83.1534 181.5 83.1534Z" fill="#C1D8ED"/>
<path d="M195.806 83.1534C198.611 83.1534 200.886 80.8789 200.886 78.0731C200.886 75.2674 198.611 72.9929 195.806 72.9929C193 72.9929 190.725 75.2674 190.725 78.0731C190.725 80.8789 193 83.1534 195.806 83.1534Z" fill="#262626"/>
<path d="M167.193 97.1086C169.999 97.1086 172.274 94.8341 172.274 92.0284C172.274 89.2227 169.999 86.9482 167.193 86.9482C164.388 86.9482 162.113 89.2227 162.113 92.0284C162.113 94.8341 164.388 97.1086 167.193 97.1086Z" fill="#262626"/>
<path d="M181.5 97.1086C184.305 97.1086 186.58 94.8341 186.58 92.0284C186.58 89.2226 184.305 86.9481 181.5 86.9481C178.694 86.9481 176.419 89.2226 176.419 92.0284C176.419 94.8341 178.694 97.1086 181.5 97.1086Z" fill="#DEE8F5"/>
<path d="M195.806 97.1086C198.611 97.1086 200.886 94.8341 200.886 92.0284C200.886 89.2226 198.611 86.9481 195.806 86.9481C193 86.9481 190.725 89.2226 190.725 92.0284C190.725 94.8341 193 97.1086 195.806 97.1086Z" fill="#0CBC8B"/>
<path d="M167.193 111.064C169.999 111.064 172.274 108.789 172.274 105.984C172.274 103.178 169.999 100.903 167.193 100.903C164.388 100.903 162.113 103.178 162.113 105.984C162.113 108.789 164.388 111.064 167.193 111.064Z" fill="#C1D8ED"/>
<path d="M181.5 111.064C184.305 111.064 186.58 108.789 186.58 105.984C186.58 103.178 184.305 100.903 181.5 100.903C178.694 100.903 176.419 103.178 176.419 105.984C176.419 108.789 178.694 111.064 181.5 111.064Z" fill="#262626"/>
<path d="M195.806 111.064C198.611 111.064 200.886 108.789 200.886 105.984C200.886 103.178 198.611 100.903 195.806 100.903C193 100.903 190.725 103.178 190.725 105.984C190.725 108.789 193 111.064 195.806 111.064Z" fill="#C1D8ED"/>
<path d="M167.193 125.019C169.999 125.019 172.274 122.745 172.274 119.939C172.274 117.133 169.999 114.859 167.193 114.859C164.388 114.859 162.113 117.133 162.113 119.939C162.113 122.745 164.388 125.019 167.193 125.019Z" fill="#C1D8ED"/>
<path d="M181.5 125.019C184.305 125.019 186.58 122.745 186.58 119.939C186.58 117.133 184.305 114.859 181.5 114.859C178.694 114.859 176.419 117.133 176.419 119.939C176.419 122.745 178.694 125.019 181.5 125.019Z" fill="#0CBC8B"/>
<path d="M195.806 125.019C198.611 125.019 200.886 122.745 200.886 119.939C200.886 117.133 198.611 114.859 195.806 114.859C193 114.859 190.725 117.133 190.725 119.939C190.725 122.745 193 125.019 195.806 125.019Z" fill="#C1D8ED"/>
<path d="M167.193 138.974C169.999 138.974 172.274 136.7 172.274 133.894C172.274 131.088 169.999 128.814 167.193 128.814C164.388 128.814 162.113 131.088 162.113 133.894C162.113 136.7 164.388 138.974 167.193 138.974Z" fill="#0CBC8B"/>
<path d="M181.5 138.974C184.305 138.974 186.58 136.7 186.58 133.894C186.58 131.088 184.305 128.814 181.5 128.814C178.694 128.814 176.419 131.088 176.419 133.894C176.419 136.7 178.694 138.974 181.5 138.974Z" fill="#262626"/>
<path d="M195.806 138.974C198.611 138.974 200.886 136.7 200.886 133.894C200.886 131.088 198.611 128.814 195.806 128.814C193 128.814 190.725 131.088 190.725 133.894C190.725 136.7 193 138.974 195.806 138.974Z" fill="#0CBC8B"/>
<path d="M142.926 194.746L138.928 196.374L145.479 212.466L149.477 210.838L142.926 194.746Z" fill="#DEE8F5"/>
<path d="M157.481 207.22H134.326V214.568H157.481V207.22Z" fill="#DEE8F5"/>
<path d="M138.773 193.038C140.072 193.038 141.125 191.984 141.125 190.685C141.125 189.385 140.072 188.332 138.773 188.332C137.473 188.332 136.42 189.385 136.42 190.685C136.42 191.984 137.473 193.038 138.773 193.038Z" fill="#0CBC8B"/>
<path opacity="0.34" d="M134.326 183.809C135.389 183.809 136.251 182.947 136.251 181.884C136.251 180.821 135.389 179.959 134.326 179.959C133.263 179.959 132.401 180.821 132.401 181.884C132.401 182.947 133.263 183.809 134.326 183.809Z" fill="#0CBC8B"/>
<path opacity="0.34" d="M129.688 174.58C130.515 174.58 131.186 173.91 131.186 173.083C131.186 172.256 130.515 171.585 129.688 171.585C128.862 171.585 128.191 172.256 128.191 173.083C128.191 173.91 128.862 174.58 129.688 174.58Z" fill="#0CBC8B"/>
<path opacity="0.34" d="M123.936 165.565C124.644 165.565 125.219 164.99 125.219 164.282C125.219 163.573 124.644 162.998 123.936 162.998C123.227 162.998 122.652 163.573 122.652 164.282C122.652 164.99 123.227 165.565 123.936 165.565Z" fill="#0CBC8B"/>
<path opacity="0.34" d="M119.297 156.55C119.888 156.55 120.367 156.071 120.367 155.481C120.367 154.89 119.888 154.411 119.297 154.411C118.707 154.411 118.228 154.89 118.228 155.481C118.228 156.071 118.707 156.55 119.297 156.55Z" fill="#0CBC8B"/>
<path d="M71.4674 196.496C63.6918 194.532 62.9269 194.239 62.6754 194.143L65.8871 185.754C65.8619 185.744 65.8289 185.732 65.7892 185.718C66.4214 185.927 70.3706 186.954 73.6675 187.787L71.4674 196.496Z" fill="#E98862"/>
<path d="M71.1179 208.229C71.04 208.458 70.9157 208.668 70.753 208.846C70.5902 209.025 70.3923 209.168 70.1718 209.267C69.9513 209.365 69.7128 209.417 69.4712 209.42C69.2296 209.422 68.9901 209.374 68.7677 209.28C68.4595 209.149 68.1951 208.933 68.0056 208.657C67.8162 208.381 67.7095 208.056 67.6983 207.721L67.7043 196.695C67.7051 196.481 67.7521 196.27 67.8419 196.077C67.9318 195.883 68.0624 195.712 68.2249 195.573C69.6277 194.528 70.658 193.06 71.1646 191.385C71.5062 190.063 71.4693 188.672 71.058 187.369C71.014 187.252 71.0041 187.125 71.0295 187.002C71.0549 186.88 71.1146 186.767 71.2017 186.677C71.2887 186.587 71.3995 186.523 71.5213 186.494C71.643 186.464 71.7705 186.47 71.8892 186.51L76.7363 188.135C76.8793 188.183 77.0114 188.259 77.1251 188.358C77.2388 188.457 77.3317 188.578 77.3987 188.713C77.4656 188.848 77.5052 188.995 77.5151 189.145C77.5251 189.296 77.5052 189.447 77.4567 189.59L71.1179 208.229Z" fill="#C1D8ED"/>
<path d="M50.1809 246.731C50.1809 246.731 50.151 237.428 50.151 236.604H59.1343C59.1343 237.425 59.1642 246.702 59.1642 246.702L50.1809 246.731Z" fill="#E98862"/>
<path d="M73.7188 117.918C67.955 112.154 41.175 119.928 41.175 119.928L41.1506 120.095L40.6018 119.787C33.7908 133.479 24.1462 153.966 17.4716 167.923C16.9618 168.883 16.6546 169.937 16.5691 171.02C16.4836 172.103 16.6216 173.192 16.9746 174.22C17.3276 175.248 17.888 176.192 18.6211 176.994C19.3541 177.796 20.2442 178.438 21.236 178.882L50.3889 191.853C48.8916 208.296 47.1729 224.726 45.7419 241.143L61.4477 243.103C64.3018 223.517 67.2368 203.953 69.8573 184.343L70.2851 183.381L70.0032 183.256C71.6103 171.174 73.0951 159.074 74.3639 146.938C74.6082 144.471 74.8229 141.786 74.9286 139.177C74.9286 139.177 76.8198 121.017 73.7188 117.918ZM35.833 168.053C41.4535 158.685 48.0648 147.644 53.7897 138.274C53.4958 150.578 52.7669 162.873 51.8082 175.161L35.833 168.053Z" fill="#262626"/>
<path d="M39.2697 250.387C39.0282 250.385 38.7894 250.335 38.5684 250.237C38.3475 250.139 38.1489 249.997 37.9853 249.82C37.8217 249.642 37.6965 249.432 37.6175 249.204C37.5385 248.976 37.5074 248.734 37.5261 248.493C37.552 248.159 37.6728 247.84 37.8743 247.572C38.0757 247.305 38.3494 247.1 38.6631 246.983L49.1192 243.481C49.3218 243.414 49.5364 243.392 49.7484 243.415C49.9605 243.439 50.1649 243.508 50.3478 243.618C51.7851 244.615 53.5047 245.125 55.2535 245.072C56.6156 244.975 57.9232 244.498 59.0269 243.694C59.1239 243.614 59.2415 243.564 59.3661 243.548C59.4906 243.533 59.6169 243.554 59.7303 243.607C59.8436 243.661 59.9393 243.746 60.0062 243.852C60.073 243.959 60.1083 244.082 60.1079 244.207V249.32C60.1079 249.471 60.0781 249.62 60.0203 249.759C59.9624 249.899 59.8776 250.025 59.7707 250.132C59.6638 250.238 59.537 250.322 59.3975 250.38C59.2579 250.437 59.1085 250.466 58.9576 250.465L39.2697 250.387Z" fill="#C1D8ED"/>
<path d="M30.6787 85.6503C30.6787 85.6503 26.2111 81.6271 25.9621 80.2655C25.7131 78.9039 29.1849 76.4728 29.1849 76.4728C29.1849 76.4728 28.2956 75.4581 27.4349 74.3117C26.4412 72.9894 25.4851 71.4918 25.9766 71.1761C26.4506 70.872 27.6184 71.9974 28.782 73.3578C30.2792 75.1074 31.7653 77.2471 31.7653 77.2471C31.7653 77.2471 31.1874 74.8811 32.0959 74.7848C32.469 74.7455 32.7376 75.127 33.2159 76.8043C33.7587 78.7169 34.9004 81.6147 34.9004 81.6147L30.6787 85.6503Z" fill="#E98862"/>
<path d="M39.6201 107.955C38.6922 107.955 37.7855 107.679 37.0158 107.16C36.2461 106.642 35.6486 105.906 35.2996 105.046L26.9173 84.3999L35.5584 80.8922L38.0968 87.1432L40.0894 77.1855L49.2356 79.0151L44.1943 104.211C43.9976 105.194 43.4891 106.088 42.7442 106.76C41.9994 107.431 41.0579 107.845 40.0594 107.939C39.9114 107.949 39.766 107.955 39.6201 107.955Z" fill="#367CFF"/>
<path d="M24.4846 91.2161L29.6701 90.3888C29.8738 90.3561 30.0683 90.2808 30.2409 90.1679C30.4136 90.0549 30.5604 89.9067 30.6719 89.7331C30.7834 89.5595 30.857 89.3644 30.8878 89.1604C30.9187 88.9564 30.9062 88.7482 30.8511 88.5493L27.5885 76.8403C27.4919 76.4934 27.2711 76.1942 26.968 75.9998C26.665 75.8053 26.301 75.7291 25.9454 75.7858L20.7599 76.611C20.5562 76.6436 20.3616 76.7188 20.1889 76.8318C20.0163 76.9447 19.8694 77.0929 19.7579 77.2665C19.6464 77.4401 19.5729 77.6353 19.542 77.8394C19.5111 78.0434 19.5237 78.2516 19.5789 78.4504L22.8432 90.1616C22.9398 90.5081 23.1604 90.8071 23.463 91.0015C23.7657 91.1959 24.1293 91.2723 24.4846 91.2161Z" fill="#C1D8ED"/>
<path d="M32.8351 88.1472L29.777 92.2966C29.777 92.2966 21.5569 90.6488 20.786 84.3165C20.697 83.5893 20.774 81.5702 21.6771 81.841C24.0298 82.5459 26.9575 86.1559 29.0108 86.6363C28.5424 85.797 27.9709 84.6125 28.3392 84.3961C29.309 83.8263 31.9158 87.266 32.8351 88.1472Z" fill="#E98862"/>
<path d="M74.1761 75.1172C72.2212 73.1623 68.8461 71.9004 64.7309 71.8961C64.4229 74.2959 49.8529 74.3044 49.7416 71.9517C49.1855 71.9602 48.7535 71.9688 48.484 71.9816C38.5951 72.4094 38.6238 80.3788 39.597 89.1871L31.4603 85.5977L27.6959 94.1314L40.6467 99.8426C40.6553 100.099 40.6613 100.356 40.6647 100.613C40.8315 114.499 37.0799 117.116 38.9284 121.36C40.7203 125.479 75.939 127.19 76.4095 119.944C76.709 115.332 72.6451 111.307 72.6451 102.319C72.6451 93.3318 80.914 81.8525 74.1761 75.1172Z" fill="#367CFF"/>
<path d="M49.7421 71.9517C49.8533 74.3044 51.1323 77.7651 55.0807 78.0261C60.3423 78.3726 64.4233 74.2959 64.7313 71.8961H64.7184C59.5381 71.8939 52.7622 71.9025 49.7421 71.9517Z" fill="#E98862"/>
<path d="M60.646 66.6644C60.6418 66.5874 60.6418 66.5104 60.6418 66.4334C60.6418 65.6548 60.6717 64.8078 60.7487 63.8838L59.7819 63.7042L53.9171 62.6176C54.0327 64.1367 54.0084 65.6631 53.8444 67.1777C53.8273 67.3488 53.8059 67.5242 53.7803 67.6996C53.7791 67.7155 53.7762 67.7313 53.7717 67.7466C53.7375 67.9776 53.699 68.2086 53.6562 68.4396C53.6305 68.5894 53.6006 68.7391 53.5664 68.8888C53.5321 69.0813 53.4851 69.2695 53.4338 69.4577C53.3824 69.646 53.3311 69.8299 53.2712 70.0138C53.2113 70.1978 53.1557 70.3775 53.0873 70.5528C52.9623 70.8991 52.8107 71.2352 52.6338 71.5581V71.5624C52.3098 72.1956 51.8549 72.7526 51.2992 73.1965H62.0449C61.3733 72.0372 60.6803 70.031 60.646 66.6644Z" fill="#E98862"/>
<path opacity="0.15" d="M52.6265 71.5688L58.3057 67.2252L53.8461 67.179C53.7166 68.7054 53.303 70.1943 52.6265 71.5688Z" fill="black"/>
<path d="M64.6277 60.3919C64.1546 63.1245 62.6634 65.7126 60.2529 66.5946C57.3911 67.6427 55.2715 67.7137 51.972 67.7137C47.4697 67.7137 47.6186 63.018 47.4919 58.286C47.3636 53.5377 47.7431 48.4395 49.5226 46.784C53.0731 43.4798 63.4993 45.5725 64.7672 51.0989C65.423 53.9582 65.0782 57.7923 64.6277 60.3919Z" fill="#E98862"/>
<path d="M45.0789 49.5307C45.0789 49.5307 43.2352 49.1192 43.74 47.2806C44.0745 46.061 45.6367 46.3318 45.6367 46.3318C45.6367 46.3318 44.1575 46.061 44.1575 44.7696C44.1575 43.9568 44.7829 42.5777 46.6689 43.3652C48.8822 44.2896 51.4065 44.1711 53.3255 43.8482C54.4112 43.6106 55.5133 43.4551 56.6224 43.3832H56.6284C57.9034 43.3613 59.1744 43.5314 60.3988 43.8879C63.8295 44.9146 69.0214 47.9903 67.9178 54.9643C66.6858 62.7472 63.0334 65.7237 61.4267 66.6785C61.3316 66.7357 61.2248 66.7705 61.1143 66.7804C61.0037 66.7903 60.8924 66.775 60.7887 66.7355C60.685 66.6961 60.5915 66.6336 60.5155 66.5528C60.4394 66.472 60.3827 66.375 60.3496 66.2691C59.894 64.8104 59.109 61.1401 59.3285 53.5719C48.783 53.0547 45.7488 52.8977 45.7488 52.8977C45.7488 52.8977 43.2677 52.9906 43.2677 51.1772C43.2677 49.3639 45.0789 49.5307 45.0789 49.5307Z" fill="#0F1011"/>
<path d="M53.9257 58.2868C54.268 58.2868 54.5455 58.0093 54.5455 57.667C54.5455 57.3247 54.268 57.0471 53.9257 57.0471C53.5834 57.0471 53.3058 57.3247 53.3058 57.667C53.3058 58.0093 53.5834 58.2868 53.9257 58.2868Z" fill="#0F1011"/>
<path d="M49.0353 57.8856C49.3777 57.8856 49.6552 57.6081 49.6552 57.2657C49.6552 56.9234 49.3777 56.6459 49.0353 56.6459C48.693 56.6459 48.4155 56.9234 48.4155 57.2657C48.4155 57.6081 48.693 57.8856 49.0353 57.8856Z" fill="#0F1011"/>
<path d="M47.9612 55.9452H47.9651L49.6073 55.9247C49.6846 55.9242 49.7584 55.893 49.8127 55.838C49.867 55.783 49.8972 55.7087 49.8967 55.6314C49.8962 55.5542 49.865 55.4803 49.81 55.426C49.755 55.3717 49.6807 55.3415 49.6034 55.342H49.5996L47.9574 55.3626C47.8801 55.3631 47.8062 55.3943 47.7519 55.4492C47.6977 55.5042 47.6675 55.5785 47.668 55.6558C47.6685 55.7331 47.6997 55.807 47.7547 55.8612C47.8097 55.9155 47.884 55.9457 47.9612 55.9452Z" fill="#0F1011"/>
<path d="M55.2638 56.5437C55.335 56.5435 55.4037 56.5172 55.4569 56.4698C55.51 56.4224 55.544 56.3571 55.5523 56.2864C55.5607 56.2156 55.5428 56.1443 55.502 56.0858C55.4613 56.0274 55.4006 55.9859 55.3313 55.9692L53.7126 55.5795C53.6753 55.5699 53.6364 55.5679 53.5982 55.5736C53.5601 55.5792 53.5234 55.5924 53.4904 55.6123C53.4573 55.6322 53.4286 55.6585 53.4058 55.6896C53.383 55.7207 53.3666 55.756 53.3576 55.7935C53.3485 55.831 53.347 55.8699 53.3532 55.908C53.3593 55.9461 53.3729 55.9826 53.3932 56.0154C53.4136 56.0481 53.4402 56.0766 53.4716 56.0989C53.503 56.1213 53.5386 56.1373 53.5762 56.1458L55.1949 56.536C55.2175 56.541 55.2406 56.5436 55.2638 56.5437Z" fill="#0F1011"/>
<path d="M57.1507 59.1835C57.1204 59.5286 57.1586 59.8763 57.2631 60.2066C57.3677 60.5369 57.5365 60.8433 57.7599 61.1081C57.9833 61.3729 58.2569 61.5909 58.5649 61.7496C58.8729 61.9082 59.2092 62.0044 59.5545 62.0326C59.8998 62.0608 60.2473 62.0205 60.577 61.9139C60.9066 61.8073 61.2119 61.6365 61.4753 61.4115C61.7388 61.1864 61.9551 60.9115 62.1118 60.6026C62.2686 60.2936 62.3627 59.9567 62.3888 59.6112C62.4229 59.2662 62.3873 58.9178 62.2839 58.5868C62.1806 58.2558 62.0118 57.9489 61.7874 57.6845C61.5631 57.4201 61.2878 57.2036 60.978 57.0478C60.6682 56.892 60.3303 56.8001 59.9843 56.7776C58.1106 56.7182 57.2688 57.7372 57.1507 59.1835Z" fill="#E98862"/>
<g opacity="0.15">
<path d="M51.1742 61.105C51.2255 61.105 51.275 61.0867 51.3139 61.0532C51.3527 61.0198 51.3783 60.9736 51.3859 60.9229C51.3935 60.8722 51.3827 60.8205 51.3554 60.7771C51.3281 60.7338 51.2861 60.7017 51.2371 60.6866L49.976 60.2995L50.8581 58.336C50.8814 58.2843 50.8832 58.2254 50.8631 58.1723C50.843 58.1193 50.8027 58.0764 50.7509 58.053C50.6992 58.0297 50.6403 58.0279 50.5873 58.048C50.5342 58.0681 50.4913 58.1085 50.468 58.1602L49.4867 60.3448C49.4742 60.3725 49.4678 60.4025 49.4678 60.4328C49.4679 60.4631 49.4743 60.4931 49.4868 60.5207C49.4993 60.5484 49.5176 60.573 49.5403 60.5931C49.5631 60.6131 49.5899 60.6281 49.6188 60.637L51.1113 61.0956C51.1317 61.1018 51.1529 61.105 51.1742 61.105Z" fill="black"/>
</g>
<path d="M53.6387 62.5483C53.6387 62.5483 51.3509 62.7896 49.7459 62.2292C49.7459 62.2292 49.7583 63.7363 51.5691 63.8847C53.3799 64.0331 53.6387 62.5483 53.6387 62.5483Z" fill="#F8FCFF"/>
</svg>
