<svg width="276" height="267" viewBox="0 0 276 267" fill="none" xmlns="http://www.w3.org/2000/svg">
<g clip-path="url(#clip0_4_117)">
<path d="M197.864 267C241.017 267 276 263.776 276 259.798C276 255.82 241.017 252.596 197.864 252.596C154.711 252.596 119.728 255.82 119.728 259.798C119.728 263.776 154.711 267 197.864 267Z" fill="white"/>
<path opacity="0.1" d="M197.864 267C241.017 267 276 263.776 276 259.798C276 255.82 241.017 252.596 197.864 252.596C154.711 252.596 119.728 255.82 119.728 259.798C119.728 263.776 154.711 267 197.864 267Z" fill="#292A2E"/>
<path d="M68.1555 152.699H43.2494V159.937H68.1555V152.699Z" fill="#F4F4F4"/>
<path opacity="0.05" d="M49.8574 152.699H46.594V159.937H49.8574V152.699Z" fill="#292A2E"/>
<path d="M64.973 154.272H51.4034V158.562H64.973V154.272Z" fill="white"/>
<path d="M88.0215 153.643L64.8794 143.546L61.9789 150.18L85.1209 160.277L88.0215 153.643Z" fill="#F4F4F4"/>
<path opacity="0.05" d="M88.0215 153.643L64.8794 143.546L61.9789 150.18L85.1209 160.277L88.0215 153.643Z" fill="#292A2E"/>
<path d="M84.9138 152.287L81.8814 150.964L78.9809 157.598L82.0132 158.921L84.9138 152.287Z" fill="white"/>
<path d="M79.8142 151.779L67.206 146.278L65.4871 150.21L78.0954 155.71L79.8142 151.779Z" fill="white"/>
<path opacity="0.05" d="M88.0649 244.4H81.806V248.576H88.0649V244.4Z" fill="#292A2E"/>
<path opacity="0.05" d="M24.0739 244.4H17.815V248.576H24.0739V244.4Z" fill="#292A2E"/>
<path d="M93.8023 160.277H12.0779V244.259H93.8023V160.277Z" fill="#F4F4F4"/>
<path opacity="0.03" d="M93.8023 160.277H12.0779V244.259H93.8023V160.277Z" fill="#292A2E"/>
<path d="M108.947 160.277H27.2226V244.259H108.947V160.277Z" fill="#F4F4F4"/>
<path opacity="0.05" d="M103.21 244.4H96.9507V248.576H103.21V244.4Z" fill="#292A2E"/>
<path opacity="0.05" d="M39.2189 244.4H32.96V248.576H39.2189V244.4Z" fill="#292A2E"/>
<path opacity="0.7" d="M105.88 164.21H30.2906V180.345H105.88V164.21Z" fill="white"/>
<path opacity="0.7" d="M105.88 184.294H30.2906V200.429H105.88V184.294Z" fill="white"/>
<path opacity="0.7" d="M105.88 204.378H30.2906V220.513H105.88V204.378Z" fill="white"/>
<path opacity="0.05" d="M68.0851 174.535C69.3333 174.535 70.3451 173.525 70.3451 172.278C70.3451 171.031 69.3333 170.02 68.0851 170.02C66.8369 170.02 65.825 171.031 65.825 172.278C65.825 173.525 66.8369 174.535 68.0851 174.535Z" fill="#292A2E"/>
<path opacity="0.05" d="M68.0851 194.619C69.3333 194.619 70.3451 193.608 70.3451 192.361C70.3451 191.115 69.3333 190.104 68.0851 190.104C66.8369 190.104 65.825 191.115 65.825 192.361C65.825 193.608 66.8369 194.619 68.0851 194.619Z" fill="#292A2E"/>
<path opacity="0.05" d="M68.0851 214.703C69.3333 214.703 70.3451 213.692 70.3451 212.446C70.3451 211.199 69.3333 210.188 68.0851 210.188C66.8369 210.188 65.825 211.199 65.825 212.446C65.825 213.692 66.8369 214.703 68.0851 214.703Z" fill="#292A2E"/>
<path opacity="0.7" d="M105.88 224.914H30.2906V241.049H105.88V224.914Z" fill="white"/>
<path opacity="0.05" d="M68.0851 235.239C69.3333 235.239 70.3451 234.229 70.3451 232.982C70.3451 231.735 69.3333 230.724 68.0851 230.724C66.8369 230.724 65.825 231.735 65.825 232.982C65.825 234.229 66.8369 235.239 68.0851 235.239Z" fill="#292A2E"/>
<path d="M41.0886 76.9209H89.4127L89.4127 14.09L41.0886 14.09L41.0886 76.9209Z" fill="#F4F4F4"/>
<path d="M41.0889 14.09H39.5212V76.9209H41.0889V14.09Z" fill="#F4F4F4"/>
<path opacity="0.05" d="M41.0889 14.09H39.5212V76.9209H41.0889V14.09Z" fill="#292A2E"/>
<path opacity="0.05" d="M49.8918 65.4753H80.6101V25.5352L49.8918 25.5352V65.4753Z" fill="#292A2E"/>
<path opacity="0.03" d="M49.8919 65.4753H51.4927L51.4927 25.5352H49.8919L49.8919 65.4753Z" fill="#292A2E"/>
<path d="M1.56737 132.212H41.0886L41.0886 92.3718H1.56737L1.56737 132.212Z" fill="#F4F4F4"/>
<path opacity="0.05" d="M8.76671 124.955H33.8892V99.6295H8.76671L8.76671 124.955Z" fill="#292A2E"/>
<path d="M1.56768 92.3721H0V132.213H1.56768V92.3721Z" fill="#F4F4F4"/>
<path opacity="0.05" d="M1.56768 92.3721H0V132.213H1.56768V92.3721Z" fill="#292A2E"/>
<path opacity="0.03" d="M8.76671 124.955H10.3676L10.3676 99.6295H8.76671L8.76671 124.955Z" fill="#292A2E"/>
<path d="M242.562 13.9404H141.717V114.675H242.562V13.9404Z" fill="#F4F4F4"/>
<path d="M141.717 13.9404H140.562V114.675H141.717V13.9404Z" fill="#F4F4F4"/>
<path opacity="0.05" d="M141.717 13.9404H140.562V114.675H141.717V13.9404Z" fill="#292A2E"/>
<path opacity="0.05" d="M166.148 83.3548V56.9991H187.76V72.3112H221.238V99.4229H235.467V114.675H221.238H218.497H146.568V83.3548H166.148Z" fill="#292A2E"/>
<path opacity="0.34" d="M184.986 59.8607H169.247V62.7222H184.986V59.8607Z" fill="#FFFFFA"/>
<path opacity="0.34" d="M184.986 65.7906H169.247V68.6522H184.986V65.7906Z" fill="#FFFFFA"/>
<path opacity="0.34" d="M184.986 71.7206H169.247V74.5822H184.986V71.7206Z" fill="#FFFFFA"/>
<path opacity="0.34" d="M152.26 86.1324H149.359V88.9939H152.26V86.1324Z" fill="#FFFFFA"/>
<path opacity="0.34" d="M152.26 92.0624H149.359V94.9239H152.26V92.0624Z" fill="#FFFFFA"/>
<path opacity="0.34" d="M152.26 97.992H149.359V100.854H152.26V97.992Z" fill="#FFFFFA"/>
<path opacity="0.34" d="M157.627 86.1324H154.726V88.9939H157.627V86.1324Z" fill="#FFFFFA"/>
<path opacity="0.34" d="M157.627 92.0624H154.726V94.9239H157.627V92.0624Z" fill="#FFFFFA"/>
<path opacity="0.34" d="M157.627 97.992H154.726V100.854H157.627V97.992Z" fill="#FFFFFA"/>
<path opacity="0.34" d="M162.848 86.1324H159.947V88.9939H162.848V86.1324Z" fill="#FFFFFA"/>
<path opacity="0.34" d="M162.848 92.0624H159.947V94.9239H162.848V92.0624Z" fill="#FFFFFA"/>
<path opacity="0.34" d="M162.848 97.992H159.947V100.854H162.848V97.992Z" fill="#FFFFFA"/>
<path d="M141.717 63.7424H162.009V13.9401H163.687V63.7424H218.497V13.9401H220.175V63.7424H242.562V65.4187H220.175V114.675H218.497V65.4187H163.687V114.675H162.009V65.4187H141.717V63.7424Z" fill="white"/>
<path d="M246.579 114.553H137.7V117.903H246.579V114.553Z" fill="#F4F4F4"/>
<path opacity="0.1" d="M246.579 114.553H137.7V117.903H246.579V114.553Z" fill="#292A2E"/>
<path opacity="0.1" d="M137.7 114.553H136.128V117.903H137.7V114.553Z" fill="#292A2E"/>
<path opacity="0.1" d="M137.7 114.553H136.128V117.903H137.7V114.553Z" fill="#292A2E"/>
<path d="M225.269 131.81C209.831 131.81 197.315 136.018 197.315 141.208V152.395H253.224V141.208C253.224 136.018 240.708 131.81 225.269 131.81Z" fill="#367CFF"/>
<path opacity="0.49" d="M225.269 131.81C209.831 131.81 197.315 136.018 197.315 141.208V152.395H253.224V141.208C253.224 136.018 240.708 131.81 225.269 131.81Z" fill="white"/>
<path opacity="0.49" d="M245.609 141.209V152.395H197.314V141.209C197.314 136.452 207.826 132.521 221.462 131.9C235.099 132.521 245.609 136.452 245.609 141.209Z" fill="white"/>
<path d="M253.224 261.1H254.162L253.224 151.403L252.294 152.34L252.957 228.967L219.838 229.529L219.17 152.332L218.24 152.34L218.908 229.545L198.916 229.884L198.245 152.332L197.314 151.411L198.253 261.1L199.175 261.093L198.924 230.814L218.916 230.474L219.17 261.1L220.1 261.093L219.846 230.458L252.965 229.896L253.224 261.1Z" fill="#292A2E"/>
<path d="M168.903 244.677C168.903 244.677 167.241 253.285 159.172 253.765C151.103 254.245 152.853 260.666 152.853 260.666H183.687V245.277L168.903 244.677Z" fill="#367CFF"/>
<path d="M186.495 218.785C186.495 218.785 188.808 227.243 181.78 231.231C174.752 235.219 179.159 240.209 179.159 240.209L206.826 226.612L200.026 212.805L186.495 218.785Z" fill="#367CFF"/>
<path d="M183.568 224.375L162.721 145.801C161.139 137.121 163.52 133.358 167.189 129.703C173.633 123.282 200.339 109.614 200.339 109.614L232.378 109.527C240.874 109.527 249.225 117.895 249.225 126.381C249.225 134.866 240.589 142.063 232.093 142.063L192.64 145.997L203.335 217.941L183.568 224.375Z" fill="#262626"/>
<path d="M203.335 217.941L199.124 189.617L177.794 202.614L183.568 224.375L203.335 217.941Z" fill="#0C0C0C"/>
<path d="M208.169 125.515C208.169 125.515 194.701 128.513 181.362 141.837C173.275 149.916 173.938 164.535 175.152 192.653L188.4 173.106L202.93 146.927L208.169 125.515Z" fill="#0C0C0C"/>
<path d="M254.802 109.518L233.044 109.416L233.036 109.702H226.447C226.447 109.702 209.943 124.871 196.657 134.43C186.993 141.383 181.097 148.012 180.587 155.236C179.343 172.847 165.316 247.957 165.316 247.957L186.426 251.15L204.951 161.388C204.951 161.388 233.917 148.048 240.618 143.407C246.927 139.036 251.383 137.346 253.471 132.575C257.077 124.337 254.802 109.518 254.802 109.518Z" fill="#262626"/>
<path d="M230.392 114.993L195.094 115.46L214.895 127.273L231.37 118.774C231.767 118.561 232.081 118.221 232.262 117.809C232.442 117.397 232.479 116.936 232.367 116.5C232.254 116.064 231.998 115.679 231.64 115.406C231.282 115.132 230.843 114.987 230.392 114.993Z" fill="#292A2E"/>
<path opacity="0.2" d="M230.392 114.993L195.094 115.46L214.895 127.273L231.37 118.774C231.767 118.561 232.081 118.221 232.262 117.809C232.442 117.397 232.479 116.936 232.367 116.5C232.254 116.064 231.998 115.679 231.64 115.406C231.282 115.132 230.843 114.987 230.392 114.993Z" fill="white"/>
<path d="M195.297 51.7379L185.313 84.0517L165.315 110.205L176.997 123.6L200.787 97.0759C201.884 96.2106 202.741 95.0807 203.279 93.7928L203.649 92.8968L217.391 59.6838L195.297 51.7379Z" fill="#367CFF"/>
<path d="M210.677 17.4375C210.677 17.4375 206.654 14.4022 205.657 7.42099C204.885 2.01538 209.877 5.51743 209.877 5.51743C209.877 5.51743 209.359 1.61956 212.202 2.0064C215.046 2.39325 216.636 6.4878 216.636 6.4878" fill="#0C0C0C"/>
<path d="M226.896 2.46262C226.896 2.46262 241.002 3.97314 235.903 23.067L234.655 23.1506L232.121 23.3204" fill="#0C0C0C"/>
<path d="M213.039 43.0076C213.101 42.9996 213.79 54.4055 227.054 53.4122C236.238 52.7249 239.513 42.9915 239.723 42.9915C238.733 42.7812 237.509 42.4622 237.023 42.3529C235.963 42.1072 235.003 41.5449 234.271 40.7409C233.539 39.9369 233.069 38.9292 232.924 37.852C232.656 36.2352 233.11 27.9631 232.971 26.3271L218.875 29.4702C219.072 32.9255 220.451 40.9353 215.619 42.3529C214.815 42.587 213.948 42.8038 213.039 43.0076Z" fill="#E98862"/>
<path opacity="0.52" d="M218.677 39.0794C218.898 38.3685 219.041 37.6356 219.102 36.8937C219.256 35.2009 219.225 33.4963 219.009 31.8102C221.874 31.4245 224.574 30.2436 226.801 28.4017C227.063 29.3674 228.502 33.5871 228.103 34.5033C227.35 36.2377 223.81 39.0794 218.677 39.0794Z" fill="#0C0C0C"/>
<path d="M221.587 36.8219C227.149 36.3235 233.805 32.8134 233.902 25.2719L233.988 18.4673C234.084 10.9261 230.197 4.76233 223.088 4.67189C215.98 4.58176 210.589 10.6276 210.493 18.169L210.455 21.1814C210.46 22.216 210.535 23.2491 210.681 24.2734C211.045 26.9835 211.611 31.1037 213.452 33.8909C215.191 36.5224 218.034 37.1399 221.587 36.8219Z" fill="#E98862"/>
<path opacity="0.52" d="M219.007 29.9286C217.859 29.9806 216.715 29.7624 215.667 29.2915C215.624 29.2722 215.591 29.2369 215.574 29.1933C215.557 29.1496 215.557 29.1009 215.576 29.0578C215.594 29.0147 215.629 28.9805 215.672 28.9625C215.716 28.9445 215.764 28.9442 215.808 28.9617C218.065 29.9234 220.115 29.7828 221.736 28.5547C221.768 28.5289 221.802 28.5048 221.837 28.4825C221.878 28.4634 221.925 28.4602 221.968 28.4737C222.011 28.4872 222.047 28.5163 222.069 28.5553C222.092 28.5943 222.099 28.6403 222.089 28.6842C222.079 28.7281 222.053 28.7667 222.016 28.7923C222.003 28.8003 221.982 28.8167 221.954 28.839C221.102 29.4873 220.076 29.8667 219.007 29.9286Z" fill="#0C0C0C"/>
<path opacity="0.52" d="M219.059 31.6275C218.852 31.6402 218.644 31.6353 218.437 31.6126C218.414 31.6101 218.391 31.6031 218.37 31.5918C218.35 31.5806 218.331 31.5654 218.317 31.5471C218.302 31.5288 218.291 31.5078 218.284 31.4852C218.277 31.4627 218.275 31.439 218.278 31.4156C218.28 31.3922 218.287 31.3696 218.299 31.3489C218.31 31.3282 218.325 31.31 218.343 31.2952C218.362 31.2804 218.383 31.2694 218.405 31.2627C218.428 31.2561 218.452 31.2539 218.475 31.2564C219.717 31.3881 220.31 30.8197 220.335 30.7952C220.369 30.7616 220.415 30.7427 220.462 30.7426C220.51 30.7426 220.555 30.7614 220.589 30.7949C220.623 30.8285 220.642 30.874 220.642 30.9215C220.642 30.9691 220.623 31.0146 220.589 31.0483C220.162 31.4121 219.621 31.6168 219.059 31.6275Z" fill="#0C0C0C"/>
<path d="M212.841 22.6315C213.324 22.6315 213.716 22.2399 213.716 21.7569C213.716 21.2738 213.324 20.8822 212.841 20.8822C212.357 20.8822 211.965 21.2738 211.965 21.7569C211.965 22.2399 212.357 22.6315 212.841 22.6315Z" fill="#0C0C0C"/>
<path d="M221.395 22.0954C221.878 22.0954 222.27 21.7038 222.27 21.2207C222.27 20.7377 221.878 20.3461 221.395 20.3461C220.911 20.3461 220.519 20.7377 220.519 21.2207C220.519 21.7038 220.911 22.0954 221.395 22.0954Z" fill="#0C0C0C"/>
<path d="M233.431 27.5654C235.591 27.593 237.371 25.3066 237.4 23.1488C237.428 20.9909 235.691 19.7787 233.531 19.7514L232.399 21.1829L231.574 27.5419L233.431 27.5654Z" fill="#E98862"/>
<path d="M231.282 24.0965C231.282 24.0965 230.552 13.4256 227.313 12.7665C225.155 12.3276 219.924 15.3846 215.078 14.4613C212.958 14.0587 210.945 14.5815 210.741 15.5819C210.659 15.978 209.339 10.2856 212.659 5.96683C215.302 2.52889 223.952 1.55636 227.887 2.68375C238.784 5.80639 233.975 20.2194 233.975 20.2194L233.489 23.8983L231.282 24.0965Z" fill="#0C0C0C"/>
<g opacity="0.52">
<path d="M217.701 27.4106C217.696 27.4109 217.692 27.4109 217.687 27.4106C216.991 27.4037 215.824 27.3142 215.829 26.7942C215.834 26.3631 217.061 21.7225 217.202 21.1947C217.214 21.1493 217.243 21.1105 217.284 21.0869C217.325 21.0633 217.373 21.0568 217.418 21.0688C217.464 21.0808 217.503 21.1104 217.526 21.1511C217.55 21.1917 217.557 21.24 217.545 21.2855C216.999 23.3408 216.186 26.5049 216.183 26.7985C216.251 26.9224 216.97 27.05 217.69 27.0575C217.736 27.0584 217.779 27.0768 217.811 27.1088C217.844 27.1408 217.862 27.1839 217.864 27.2293C217.865 27.2747 217.849 27.3189 217.819 27.3528C217.788 27.3866 217.746 27.4075 217.701 27.4112V27.4106Z" fill="#0C0C0C"/>
</g>
<path d="M215.326 17.0144C214.594 16.8132 213.822 16.8132 213.09 17.0144C212.731 17.1109 212.388 17.2608 212.073 17.4591C211.762 17.6533 211.477 17.886 211.224 18.1517C211.177 18.199 211.151 18.2624 211.15 18.3288C211.149 18.3952 211.173 18.4594 211.219 18.5081C211.264 18.5568 211.326 18.5862 211.392 18.5902C211.459 18.5941 211.524 18.5724 211.575 18.5295L211.591 18.5159C211.825 18.2993 212.085 18.1132 212.366 17.9618C212.641 17.8111 212.938 17.7029 213.246 17.6409C213.851 17.5141 214.48 17.5492 215.068 17.7428L215.092 17.7515C215.188 17.7825 215.293 17.7748 215.384 17.73C215.474 17.6852 215.544 17.6068 215.577 17.5116C215.611 17.4164 215.606 17.3119 215.564 17.2201C215.522 17.1284 215.445 17.0568 215.351 17.0205L215.326 17.0144Z" fill="#0C0C0C"/>
<path d="M220.506 17.4532C221.063 17.183 221.681 17.0646 222.299 17.1098C222.612 17.1301 222.92 17.1977 223.213 17.3105C223.511 17.4234 223.794 17.5732 224.054 17.7565L224.071 17.7676C224.127 17.8036 224.195 17.8167 224.26 17.804C224.325 17.7914 224.383 17.754 224.422 17.6997C224.46 17.6454 224.476 17.5784 224.466 17.5126C224.457 17.4468 224.422 17.3874 224.369 17.3467C224.083 17.1171 223.769 16.9244 223.435 16.7734C223.096 16.6188 222.737 16.5159 222.368 16.468C221.616 16.3657 220.85 16.4681 220.152 16.7644C220.105 16.7848 220.063 16.8141 220.027 16.8508C219.992 16.8875 219.964 16.9308 219.945 16.9782C219.926 17.0257 219.917 17.0764 219.918 17.1274C219.919 17.1784 219.93 17.2287 219.95 17.2755C219.991 17.3699 220.068 17.4442 220.164 17.482C220.212 17.5007 220.263 17.5098 220.314 17.5089C220.365 17.508 220.415 17.4971 220.462 17.4768L220.484 17.4666L220.506 17.4532Z" fill="#0C0C0C"/>
<path d="M220.152 6.01547C220.643 3.66461 219.746 1.48833 218.147 1.15462C216.548 0.820918 214.853 2.45616 214.361 4.80702C213.869 7.15789 214.767 9.33415 216.366 9.66785C217.965 10.0016 219.66 8.36634 220.152 6.01547Z" fill="#0C0C0C"/>
<path d="M196.557 68.0773C196.975 72.9809 199.936 103.575 200.339 109.615H254.778C255.091 104.167 256.496 80.3461 257.682 69.6916C258.814 59.5258 260.401 54.8998 259.097 51.7409C256.797 46.169 249.476 43.681 244.518 43.0104C241.491 42.601 236.937 42.3077 236.937 42.3077C236.937 42.3077 236.552 50.0982 227.359 50.5318C214.845 51.1203 215.681 42.3077 215.619 42.3077C213.592 42.3077 202.557 43.7804 199.797 45.5768C195.9 48.1141 194.748 51.5721 194.703 54.749C194.65 58.4077 196.084 62.515 196.557 68.0773Z" fill="#367CFF"/>
<path d="M199.317 97.5587C199.278 97.5589 199.241 97.5444 199.212 97.5183C199.183 97.4921 199.166 97.4562 199.162 97.4175L197.1 73.8537C197.096 73.8128 197.109 73.7721 197.135 73.7406C197.162 73.7092 197.199 73.6894 197.24 73.6858C197.261 73.6837 197.281 73.6858 197.301 73.6918C197.32 73.6978 197.339 73.7076 197.354 73.7208C197.37 73.7339 197.383 73.7501 197.392 73.7683C197.401 73.7865 197.407 73.8064 197.408 73.8267L199.471 97.3905C199.475 97.4314 199.462 97.472 199.435 97.5034C199.409 97.5348 199.371 97.5545 199.33 97.5581C199.326 97.5586 199.322 97.5588 199.317 97.5587Z" fill="#0C0C0C"/>
<path d="M203.265 111.246L210.74 105.188L209.482 105.543C209.073 105.65 208.64 105.598 208.268 105.397C207.897 105.197 207.616 104.863 207.482 104.463C207.42 104.254 207.401 104.035 207.426 103.819C207.452 103.603 207.521 103.394 207.63 103.205C207.739 103.017 207.885 102.852 208.06 102.722C208.234 102.592 208.433 102.498 208.645 102.448L224.349 98.6325L225.7 103.629C226.12 105.181 226.066 106.822 225.546 108.343C225.026 109.865 224.063 111.196 222.78 112.167L216.961 116.553C216.663 116.786 216.294 116.91 215.916 116.903C215.537 116.895 215.173 116.758 214.884 116.513C214.628 116.286 214.451 115.984 214.379 115.649C214.307 115.315 214.344 114.967 214.485 114.655C214.46 114.647 214.437 114.633 214.419 114.614C214.403 114.595 214.393 114.573 214.388 114.549C214.383 114.525 214.384 114.5 214.391 114.477L213.319 115.288C212.988 115.549 212.57 115.675 212.149 115.64C211.728 115.605 211.337 115.412 211.053 115.1C210.81 114.812 210.676 114.447 210.675 114.07C210.674 113.693 210.806 113.328 211.047 113.039C211.031 113.036 211.014 113.031 210.999 113.022L210.559 113.356C210.261 113.589 209.892 113.713 209.513 113.705C209.135 113.698 208.77 113.561 208.482 113.316C208.171 113.041 207.979 112.656 207.946 112.243C207.912 111.83 208.041 111.42 208.304 111.099C208.297 111.09 208.292 111.08 208.288 111.07L205.175 113.592C205.021 113.718 204.843 113.811 204.653 113.868C204.462 113.924 204.263 113.943 204.065 113.922C203.867 113.901 203.676 113.842 203.501 113.748C203.326 113.653 203.172 113.525 203.047 113.371C202.922 113.217 202.828 113.039 202.771 112.849C202.715 112.659 202.696 112.459 202.717 112.262C202.737 112.065 202.797 111.873 202.891 111.699C202.986 111.524 203.114 111.37 203.269 111.245L203.265 111.246Z" fill="#E98862"/>
<path opacity="0.2" d="M208.474 111.16C208.491 111.154 208.506 111.145 208.52 111.134L211.515 108.649C211.53 108.636 211.543 108.621 211.552 108.603C211.561 108.586 211.567 108.566 211.568 108.547C211.57 108.527 211.568 108.507 211.562 108.488C211.556 108.469 211.547 108.452 211.534 108.437C211.521 108.421 211.506 108.409 211.488 108.4C211.471 108.391 211.452 108.385 211.432 108.383C211.412 108.381 211.392 108.383 211.374 108.389C211.355 108.395 211.337 108.405 211.322 108.417L208.327 110.903C208.3 110.925 208.281 110.957 208.275 110.991C208.269 111.026 208.275 111.062 208.293 111.093C208.31 111.124 208.338 111.147 208.371 111.159C208.404 111.172 208.441 111.172 208.474 111.16Z" fill="#0A0A0A"/>
<path opacity="0.2" d="M211.114 113.037C211.13 113.031 211.145 113.023 211.158 113.012L213.527 111.077C213.558 111.052 213.578 111.015 213.582 110.975C213.586 110.936 213.574 110.896 213.549 110.865C213.523 110.834 213.487 110.815 213.447 110.811C213.407 110.807 213.368 110.818 213.337 110.844L210.967 112.779C210.94 112.801 210.921 112.833 210.915 112.868C210.908 112.903 210.914 112.939 210.931 112.97C210.949 113.001 210.977 113.024 211.01 113.037C211.044 113.049 211.08 113.049 211.114 113.037Z" fill="#0A0A0A"/>
<path opacity="0.2" d="M214.582 114.66C214.599 114.653 214.615 114.644 214.629 114.632L215.726 113.692C215.741 113.679 215.754 113.664 215.763 113.646C215.772 113.628 215.777 113.609 215.778 113.59C215.78 113.57 215.778 113.55 215.771 113.531C215.765 113.513 215.755 113.495 215.743 113.48C215.73 113.465 215.714 113.453 215.696 113.444C215.679 113.435 215.66 113.43 215.64 113.428C215.62 113.427 215.6 113.429 215.582 113.435C215.563 113.441 215.545 113.451 215.53 113.464L214.433 114.404C214.406 114.427 214.388 114.458 214.383 114.493C214.377 114.528 214.383 114.563 214.401 114.594C214.419 114.624 214.446 114.647 214.479 114.659C214.512 114.671 214.548 114.672 214.582 114.66Z" fill="#0A0A0A"/>
<path d="M269.33 96.4081L269.273 96.1538L259.336 52.2529L239.678 56.6919L247.434 90.9594L216.366 98.5851L220.19 116.096L261.591 108.208C261.684 108.19 261.822 108.162 261.916 108.141C263.174 107.857 264.364 107.328 265.418 106.584C266.471 105.841 267.367 104.898 268.056 103.808C268.744 102.719 269.211 101.504 269.43 100.235C269.649 98.965 269.615 97.6647 269.33 96.4081Z" fill="#367CFF"/>
<path d="M216.214 98.6183C216.206 98.579 216.213 98.538 216.235 98.5041C216.256 98.4701 216.29 98.4457 216.329 98.4362L247.258 90.8479L242.23 68.6605C242.224 68.6403 242.222 68.6192 242.225 68.5984C242.228 68.5776 242.235 68.5576 242.246 68.5395C242.256 68.5215 242.271 68.5058 242.288 68.4935C242.305 68.4812 242.324 68.4724 242.345 68.4678C242.365 68.4631 242.386 68.4627 242.407 68.4665C242.428 68.4703 242.447 68.4782 242.465 68.4899C242.482 68.5015 242.497 68.5166 242.509 68.5341C242.52 68.5517 242.528 68.5714 242.532 68.5921L247.594 90.9278C247.604 90.9676 247.597 91.0094 247.575 91.0442C247.554 91.079 247.52 91.104 247.48 91.1137L216.549 98.7019C216.549 98.7019 216.756 99.6051 216.814 99.9098C216.819 99.9495 216.808 99.9894 216.783 100.021C216.758 100.052 216.722 100.072 216.682 100.077C216.642 100.081 216.602 100.07 216.571 100.045C216.54 100.02 216.519 99.9842 216.515 99.9445C216.443 99.6103 216.214 98.6183 216.214 98.6183Z" fill="#0C0C0C"/>
<path d="M217.427 123.071L205.482 86.3925C205.272 85.748 204.863 85.1863 204.314 84.788C203.765 84.3897 203.104 84.1752 202.425 84.1752H153.76C153.253 84.1752 152.753 84.2951 152.301 84.5252C151.849 84.7553 151.458 85.089 151.159 85.499C150.861 85.909 150.665 86.3837 150.585 86.8842C150.506 87.3848 150.547 87.8969 150.704 88.3788L162.649 125.057C162.859 125.702 163.268 126.263 163.817 126.662C164.366 127.06 165.027 127.275 165.705 127.275H214.37C214.878 127.275 215.378 127.155 215.83 126.924C216.282 126.694 216.673 126.361 216.971 125.951C217.269 125.541 217.466 125.066 217.545 124.565C217.624 124.065 217.584 123.553 217.427 123.071Z" fill="#292A2E"/>
<path opacity="0.2" d="M217.427 123.071L205.482 86.3925C205.272 85.748 204.863 85.1863 204.314 84.788C203.765 84.3897 203.104 84.1752 202.425 84.1752H153.76C153.253 84.1752 152.753 84.2951 152.301 84.5252C151.849 84.7553 151.458 85.089 151.159 85.499C150.861 85.909 150.665 86.3837 150.585 86.8842C150.506 87.3848 150.547 87.8969 150.704 88.3788L162.649 125.057C162.859 125.702 163.268 126.263 163.817 126.662C164.366 127.06 165.027 127.275 165.705 127.275H214.37C214.878 127.275 215.378 127.155 215.83 126.924C216.282 126.694 216.673 126.361 216.971 125.951C217.269 125.541 217.466 125.066 217.545 124.565C217.624 124.065 217.584 123.553 217.427 123.071Z" fill="white"/>
<path d="M182.663 110.823C185.482 110.823 187.767 108.541 187.767 105.725C187.767 102.909 185.482 100.627 182.663 100.627C179.845 100.627 177.559 102.909 177.559 105.725C177.559 108.541 179.845 110.823 182.663 110.823Z" fill="white"/>
<path d="M134.616 3.87589H38.027C33.5523 3.87589 29.9248 7.49942 29.9248 11.9693V129.098C29.9248 133.567 33.5523 137.191 38.027 137.191H134.616C139.09 137.191 142.718 133.567 142.718 129.098V11.9693C142.718 7.49942 139.09 3.87589 134.616 3.87589Z" fill="#292A2E"/>
<path d="M138.186 0.309723H41.5971C37.1223 0.309723 33.4948 3.93326 33.4948 8.40312V125.531C33.4948 130.001 37.1223 133.625 41.5971 133.625H138.186C142.66 133.625 146.288 130.001 146.288 125.531V8.40312C146.288 3.93326 142.66 0.309723 138.186 0.309723Z" fill="#1D2D83"/>
<path d="M138.186 133.935H41.5971C39.3667 133.932 37.2284 133.046 35.6513 131.47C34.0742 129.895 33.1871 127.759 33.1848 125.531V8.40312C33.1872 6.17523 34.0743 4.03929 35.6514 2.46393C37.2285 0.888575 39.3667 0.00245941 41.5971 0L138.186 0C140.416 0.00254137 142.554 0.888693 144.131 2.46404C145.708 4.03939 146.595 6.17528 146.598 8.40312V125.531C146.595 127.759 145.708 129.895 144.131 131.47C142.554 133.046 140.416 133.932 138.186 133.935ZM41.5971 0.619448C39.5311 0.621743 37.5505 1.44254 36.0897 2.90177C34.6289 4.36099 33.8072 6.33947 33.8049 8.40312V125.531C33.8072 127.595 34.6289 129.573 36.0897 131.032C37.5505 132.492 39.5311 133.312 41.5971 133.315H138.186C140.251 133.312 142.232 132.492 143.693 131.032C145.154 129.573 145.975 127.595 145.977 125.531V8.40312C145.975 6.33949 145.154 4.36102 143.693 2.90179C142.232 1.44255 140.251 0.621743 138.186 0.619448H41.5971Z" fill="#292A2E"/>
<path d="M32.1938 150.385C43.3035 150.385 52.3097 141.388 52.3097 130.291C52.3097 119.193 43.3035 110.197 32.1938 110.197C21.0841 110.197 12.0779 119.193 12.0779 130.291C12.0779 141.388 21.0841 150.385 32.1938 150.385Z" fill="#2E2C29"/>
</g>
<defs>
<clipPath id="clip0_4_117">
<rect width="276" height="267" fill="white"/>
</clipPath>
</defs>
</svg>
