<svg width="241" height="275" viewBox="0 0 241 275" fill="none" xmlns="http://www.w3.org/2000/svg">
<path opacity="0.05" d="M220.526 35.4974H171.527C170.692 35.4974 170.016 36.174 170.016 37.0086V70.8401C170.016 71.6747 170.692 72.3513 171.527 72.3513H220.526C221.361 72.3513 222.037 71.6747 222.037 70.8401V37.0086C222.037 36.174 221.361 35.4974 220.526 35.4974Z" fill="#292A2E"/>
<path opacity="0.05" d="M191.924 46.6787C194.003 46.6787 195.688 44.9934 195.688 42.9145C195.688 40.8356 194.003 39.1503 191.924 39.1503C189.845 39.1503 188.159 40.8356 188.159 42.9145C188.159 44.9934 189.845 46.6787 191.924 46.6787Z" fill="#292A2E"/>
<path opacity="0.05" d="M193.343 60.1415L204.255 47.9682C204.936 47.2082 205.889 46.7474 206.908 46.6857C207.927 46.6241 208.929 46.9666 209.697 47.639L222.037 58.4438V70.8457C222.037 71.245 221.879 71.6279 221.597 71.9103C221.314 72.1926 220.931 72.3513 220.532 72.3513H207.12" fill="#292A2E"/>
<path opacity="0.1" d="M207.12 72.3513L183.459 51.3823C182.76 50.7626 181.861 50.4162 180.926 50.4068C179.992 50.3974 179.086 50.7257 178.374 51.3312L170.016 58.4438V70.9897C170.016 71.1686 170.051 71.3456 170.12 71.5108C170.188 71.6761 170.289 71.8262 170.415 71.9526C170.542 72.079 170.692 72.1793 170.857 72.2477C171.022 72.3161 171.199 72.3513 171.378 72.3513H207.12Z" fill="#292A2E"/>
<path opacity="0.05" d="M94.1436 37.6266H50.071C49.3204 37.6266 48.7119 38.2351 48.7119 38.9857V69.4156C48.7119 70.1662 49.3204 70.7747 50.071 70.7747H94.1436C94.8942 70.7747 95.5027 70.1662 95.5027 69.4156V38.9857C95.5027 38.2351 94.8942 37.6266 94.1436 37.6266Z" fill="#292A2E"/>
<path opacity="0.05" d="M68.4167 47.6832C70.2865 47.6832 71.8023 46.1674 71.8023 44.2976C71.8023 42.4278 70.2865 40.912 68.4167 40.912C66.5469 40.912 65.0311 42.4278 65.0311 44.2976C65.0311 46.1674 66.5469 47.6832 68.4167 47.6832Z" fill="#292A2E"/>
<path opacity="0.05" d="M69.6934 59.7925L79.5082 48.8433C80.1209 48.1597 80.9784 47.7452 81.8947 47.6898C82.811 47.6343 83.7123 47.9424 84.4029 48.5472L95.5027 58.2656V69.419C95.5027 69.7782 95.36 70.1227 95.1061 70.3766C94.8521 70.6306 94.5076 70.7733 94.1485 70.7733H82.0855" fill="#292A2E"/>
<path opacity="0.1" d="M82.0855 70.7761L60.803 51.9168C60.1741 51.3595 59.3651 51.0479 58.5248 51.0395C57.6845 51.031 56.8695 51.3263 56.2295 51.8709L48.7136 58.2684V69.5527C48.7136 69.8775 48.8427 70.1891 49.0724 70.4188C49.3021 70.6484 49.6136 70.7775 49.9384 70.7775L82.0855 70.7761Z" fill="#292A2E"/>
<path d="M36.4975 38.7968C33.9942 38.7792 31.5858 37.8368 29.7354 36.1507C27.885 34.4646 26.7233 32.1539 26.4737 29.6631C26.2241 27.1722 26.9041 24.677 28.3831 22.6572C29.8621 20.6375 32.0356 19.2358 34.4856 18.7218C33.8328 15.0138 34.5395 11.1947 36.4759 7.96575C37.8813 5.59071 39.8944 3.6333 42.308 2.29517C44.7215 0.957037 47.4482 0.28658 50.2071 0.352868C52.9659 0.419157 55.6573 1.21979 58.0038 2.6723C60.3503 4.1248 62.2671 6.17664 63.5567 8.61643C65.0737 7.57429 66.9104 7.10256 68.7418 7.28476C70.5732 7.46696 72.281 8.29134 73.5629 9.61193C74.8047 10.8893 75.5809 12.547 75.7669 14.3187C78.0898 14.4758 80.3202 15.2905 82.1975 16.6677C84.0748 18.0448 85.5216 19.9276 86.369 22.0962C87.2163 24.2648 87.4293 26.6297 86.983 28.9148C86.5367 31.1999 85.4496 33.3109 83.8485 35.0013C82.7506 36.1667 81.4317 37.1019 79.9687 37.7524C78.5057 38.403 76.9278 38.7559 75.3271 38.7906L36.4975 38.7968Z" fill="#292A2E"/>
<path d="M33.6025 38.7968C31.0992 38.7792 28.6908 37.8368 26.8405 36.1507C24.9901 34.4646 23.8284 32.154 23.5787 29.6631C23.3291 27.1722 24.0092 24.677 25.4882 22.6572C26.9672 20.6375 29.1406 19.2358 31.5907 18.7218C30.9377 15.0138 31.6443 11.1947 33.5806 7.96576C34.986 5.59073 36.9992 3.63333 39.4128 2.29521C41.8263 0.957091 44.553 0.286641 47.3119 0.352929C50.0708 0.419217 52.7622 1.21985 55.1087 2.67234C57.4552 4.12483 59.3721 6.17665 60.6618 8.61644C62.1787 7.5743 64.0155 7.10257 65.8469 7.28477C67.6783 7.46697 69.3861 8.29135 70.668 9.61194C71.9096 10.8894 72.6858 12.5471 72.8719 14.3188C75.1949 14.4759 77.4252 15.2905 79.3025 16.6677C81.1798 18.0449 82.6266 19.9276 83.474 22.0962C84.3214 24.2648 84.5344 26.6297 84.0881 28.9148C83.6418 31.1999 82.5546 33.3109 80.9536 35.0013C79.8556 36.1666 78.5367 37.1018 77.0737 37.7524C75.6107 38.4029 74.0328 38.7558 72.4321 38.7906L33.6025 38.7968Z" fill="white"/>
<path d="M33.6025 39.1447C30.8317 39.132 28.179 38.0207 26.2265 36.0546C24.2739 34.0885 23.181 31.4282 23.1875 28.6573C23.1584 26.2985 23.9364 24.0005 25.3926 22.1446C26.8488 20.2886 28.8956 18.9861 31.1936 18.4531C30.6306 14.7638 31.3687 10.9936 33.2814 7.78896C34.7014 5.38824 36.7292 3.40428 39.1603 2.03703C41.5915 0.669778 44.3401 -0.03244 47.1291 0.00115096C49.9182 0.0347419 52.6491 0.802955 55.0466 2.22836C57.4441 3.65377 59.4235 5.686 60.7853 8.12021C62.3638 7.14267 64.2288 6.73377 66.0715 6.96127C67.9142 7.18877 69.6238 8.03901 70.9171 9.37112C72.1431 10.6327 72.9361 12.2514 73.1816 13.9934C75.5418 14.2074 77.7941 15.0817 79.6806 16.516C81.5671 17.9504 83.0117 19.8869 83.849 22.104C84.6863 24.321 84.8825 26.729 84.4151 29.0524C83.9477 31.3757 82.8357 33.5205 81.2062 35.2414C80.0765 36.4399 78.7196 37.4018 77.2146 38.0708C75.7095 38.7399 74.0864 39.1028 72.4398 39.1385L33.6025 39.1447ZM46.9425 0.697594C44.7134 0.709124 42.5137 1.207 40.4969 2.15646C38.4801 3.10592 36.6948 4.4841 35.2657 6.19478C33.8365 7.90547 32.7979 9.90745 32.2224 12.061C31.6468 14.2145 31.5482 16.4677 31.9334 18.6633L31.9915 18.9973L31.6592 19.0642C29.4465 19.5029 27.4574 20.7026 26.037 22.455C24.6166 24.2073 23.8546 26.4018 23.8834 28.6573C23.8767 31.2437 24.8963 33.7271 26.7183 35.5628C28.5404 37.3984 31.0162 38.4363 33.6025 38.4488L72.4321 38.444C73.9857 38.4092 75.5168 38.0658 76.9365 37.4338C78.3561 36.8018 79.6359 35.8938 80.7013 34.7626C82.2567 33.1202 83.3128 31.0692 83.7464 28.8492C84.18 26.6291 83.9732 24.3315 83.1501 22.2245C82.327 20.1176 80.9216 18.2882 79.0979 16.95C77.2742 15.6117 75.1075 14.8198 72.8507 14.6667L72.5563 14.6493L72.5257 14.3559C72.3474 12.6622 71.6054 11.0775 70.4188 9.85582C69.1943 8.59406 67.5628 7.80631 65.8132 7.63207C64.0636 7.45783 62.3087 7.90833 60.8594 8.90381L60.5379 9.12546L60.3545 8.78098C59.064 6.34244 57.1337 4.3015 54.7707 2.87734C52.4077 1.45319 49.7015 0.699631 46.9425 0.697594Z" fill="#292A2E"/>
<path d="M54.1295 33.162C54.0372 33.162 53.9487 33.1253 53.8835 33.0601C53.8182 32.9948 53.7816 32.9063 53.7816 32.814V12.6036C53.7816 12.5113 53.8182 12.4228 53.8835 12.3576C53.9487 12.2923 54.0372 12.2557 54.1295 12.2557C54.2218 12.2557 54.3103 12.2923 54.3756 12.3576C54.4408 12.4228 54.4775 12.5113 54.4775 12.6036V32.814C54.4775 32.9063 54.4408 32.9948 54.3756 33.0601C54.3103 33.1253 54.2218 33.162 54.1295 33.162Z" fill="#292A2E"/>
<path d="M61.7623 20.5841C61.7166 20.5842 61.6714 20.5753 61.6291 20.5578C61.5869 20.5403 61.5486 20.5146 61.5163 20.4821L54.1296 13.0957L46.7431 20.4821C46.6775 20.5455 46.5896 20.5806 46.4984 20.5798C46.4071 20.579 46.3199 20.5424 46.2554 20.4779C46.1908 20.4134 46.1542 20.3261 46.1535 20.2349C46.1527 20.1436 46.1877 20.0557 46.2511 19.9901L53.8832 12.3577C53.9498 12.2949 54.0379 12.2599 54.1294 12.2599C54.2209 12.2599 54.309 12.2949 54.3756 12.3577L62.008 19.9901C62.0566 20.0388 62.0898 20.1008 62.1032 20.1683C62.1166 20.2358 62.1097 20.3057 62.0834 20.3693C62.0571 20.4328 62.0125 20.4872 61.9553 20.5254C61.8981 20.5637 61.8308 20.5841 61.762 20.5841H61.7623Z" fill="#292A2E"/>
<path opacity="0.05" d="M238.506 123.792H162.528C161.234 123.792 160.185 124.841 160.185 126.135V178.593C160.185 179.887 161.234 180.937 162.528 180.937H238.506C239.8 180.937 240.849 179.887 240.849 178.593V126.135C240.849 124.841 239.8 123.792 238.506 123.792Z" fill="#292A2E"/>
<path opacity="0.05" d="M194.155 141.129C197.378 141.129 199.991 138.516 199.991 135.293C199.991 132.069 197.378 129.456 194.155 129.456C190.931 129.456 188.318 132.069 188.318 135.293C188.318 138.516 190.931 141.129 194.155 141.129Z" fill="#292A2E"/>
<path opacity="0.05" d="M196.355 162.004L213.276 143.129C214.332 141.95 215.81 141.236 217.39 141.14C218.969 141.044 220.523 141.576 221.714 142.618L240.849 159.372V178.602C240.849 179.221 240.603 179.815 240.165 180.253C239.727 180.691 239.133 180.936 238.514 180.936H217.718" fill="#292A2E"/>
<path opacity="0.1" d="M217.718 180.936L181.029 148.422C179.945 147.462 178.55 146.924 177.102 146.91C175.653 146.895 174.248 147.404 173.145 148.343L160.185 159.373V178.826C160.185 179.104 160.24 179.378 160.346 179.634C160.452 179.891 160.607 180.123 160.803 180.319C160.999 180.516 161.232 180.671 161.488 180.777C161.744 180.883 162.019 180.938 162.296 180.938L217.718 180.936Z" fill="#292A2E"/>
<path opacity="0.05" d="M89.9208 173.443H12.7579C11.4436 173.443 10.3782 174.508 10.3782 175.822V229.099C10.3782 230.414 11.4436 231.479 12.7579 231.479H89.9208C91.235 231.479 92.3005 230.414 92.3005 229.099V175.822C92.3005 174.508 91.235 173.443 89.9208 173.443Z" fill="#292A2E"/>
<path opacity="0.05" d="M44.8777 191.051C48.1515 191.051 50.8055 188.397 50.8055 185.123C50.8055 181.849 48.1515 179.195 44.8777 179.195C41.6039 179.195 38.9499 181.849 38.9499 185.123C38.9499 188.397 41.6039 191.051 44.8777 191.051Z" fill="#292A2E"/>
<path opacity="0.05" d="M47.1133 212.252L64.2979 193.079C65.3707 191.882 66.872 191.157 68.4762 191.06C70.0804 190.963 71.6582 191.502 72.8674 192.561L92.3011 209.576V229.106C92.3011 229.418 92.2398 229.726 92.1206 230.014C92.0015 230.301 91.8268 230.563 91.6067 230.783C91.3865 231.003 91.1251 231.178 90.8375 231.297C90.5498 231.416 90.2415 231.477 89.9301 231.477H68.8092" fill="#292A2E"/>
<path opacity="0.1" d="M68.8092 231.479L31.5475 198.458C30.4464 197.482 29.03 196.937 27.5588 196.922C26.0876 196.907 24.6605 197.424 23.54 198.377L10.3782 209.576V229.333C10.3782 229.902 10.6041 230.447 11.0062 230.849C11.4083 231.251 11.9536 231.477 12.5223 231.477L68.8092 231.479Z" fill="#292A2E"/>
<path d="M209.143 233.272C209.059 233.272 208.979 233.239 208.92 233.179C208.474 232.734 207.749 224.565 205.794 200.244C204.994 190.293 204.239 180.893 203.687 175.18C203.648 174.772 203.49 174.725 203.438 174.709C202.683 174.482 200.388 176.292 199.106 177.876C199.053 177.938 198.977 177.978 198.895 177.985C198.813 177.993 198.731 177.968 198.667 177.916C198.602 177.865 198.561 177.79 198.551 177.708C198.542 177.626 198.564 177.543 198.615 177.478C199.462 176.43 202.224 173.683 203.62 174.103C203.901 174.187 204.25 174.432 204.316 175.118C204.867 180.836 205.623 190.238 206.423 200.192C207.611 214.972 208.957 231.716 209.399 232.77C209.433 232.818 209.453 232.873 209.457 232.931C209.461 232.989 209.45 233.047 209.423 233.099C209.397 233.15 209.356 233.194 209.307 233.224C209.257 233.254 209.2 233.271 209.142 233.271L209.143 233.272Z" fill="#494949"/>
<path d="M202.875 185.664C208.119 181.461 209.857 174.918 206.757 171.051C203.657 167.184 196.894 167.457 191.65 171.66C186.406 175.863 184.668 182.406 187.768 186.273C190.868 190.14 197.631 189.867 202.875 185.664Z" fill="#0CBC8B"/>
<path opacity="0.2" d="M202.875 185.664C208.119 181.461 209.857 174.918 206.757 171.051C203.657 167.184 196.894 167.457 191.65 171.66C186.406 175.863 184.668 182.406 187.768 186.273C190.868 190.14 197.631 189.867 202.875 185.664Z" fill="white"/>
<path d="M189.238 187.256C189.208 187.256 189.178 187.247 189.153 187.231C189.128 187.215 189.108 187.192 189.095 187.165C189.082 187.138 189.078 187.108 189.081 187.078C189.085 187.048 189.097 187.02 189.116 186.997L204.061 168.976C204.088 168.943 204.126 168.923 204.168 168.919C204.21 168.915 204.251 168.928 204.283 168.955C204.316 168.981 204.336 169.02 204.34 169.062C204.344 169.103 204.331 169.145 204.304 169.177L189.358 187.199C189.344 187.217 189.325 187.231 189.304 187.241C189.284 187.251 189.261 187.256 189.238 187.256Z" fill="white"/>
<path d="M212.403 229.41C212.367 229.41 212.332 229.404 212.298 229.392C212.219 229.364 212.154 229.307 212.118 229.231C212.081 229.156 212.076 229.069 212.104 228.99L217.717 212.847C217.882 212.373 218.163 211.947 218.536 211.61C218.908 211.273 219.359 211.034 219.847 210.917C220.335 210.799 220.845 210.806 221.33 210.936C221.815 211.067 222.26 211.317 222.623 211.664L225.591 214.499C225.621 214.527 225.645 214.562 225.661 214.6C225.678 214.638 225.687 214.679 225.688 214.72C225.689 214.762 225.682 214.803 225.667 214.841C225.652 214.88 225.629 214.916 225.601 214.946C225.572 214.976 225.538 215 225.5 215.016C225.462 215.033 225.421 215.042 225.379 215.043C225.338 215.044 225.297 215.037 225.258 215.022C225.219 215.007 225.184 214.984 225.154 214.956L222.186 212.121C221.9 211.847 221.549 211.649 221.166 211.546C220.783 211.443 220.38 211.438 219.994 211.531C219.609 211.624 219.253 211.812 218.959 212.079C218.665 212.345 218.443 212.681 218.313 213.056L212.699 229.201C212.677 229.262 212.637 229.315 212.584 229.352C212.531 229.389 212.468 229.41 212.403 229.41Z" fill="#494949"/>
<path d="M233.884 223.435C237.77 220.359 237.539 213.593 233.368 208.324C229.197 203.054 222.665 201.276 218.779 204.352C214.893 207.428 215.124 214.193 219.295 219.463C223.466 224.732 229.998 226.51 233.884 223.435Z" fill="#0CBC8B"/>
<path d="M206.593 232.243C206.522 232.243 206.453 232.219 206.397 232.175C206.341 232.131 206.302 232.069 206.286 232L196.866 192.611C196.801 192.343 196.664 192.097 196.47 191.901C196.275 191.706 196.03 191.567 195.761 191.502C195.493 191.436 195.212 191.446 194.949 191.53C194.686 191.614 194.451 191.769 194.27 191.978L191.367 195.334C191.312 195.397 191.234 195.436 191.15 195.442C191.067 195.448 190.984 195.421 190.921 195.366C190.857 195.311 190.818 195.233 190.812 195.15C190.806 195.066 190.834 194.984 190.888 194.92L193.792 191.565C194.049 191.268 194.383 191.047 194.756 190.928C195.13 190.809 195.53 190.795 195.911 190.888C196.293 190.981 196.641 191.177 196.918 191.455C197.195 191.733 197.389 192.083 197.481 192.464L206.901 231.853C206.912 231.9 206.912 231.948 206.902 231.995C206.892 232.041 206.871 232.085 206.841 232.122C206.812 232.16 206.774 232.19 206.731 232.211C206.688 232.232 206.641 232.242 206.593 232.242L206.593 232.243Z" fill="#494949"/>
<path d="M203.118 204.086C204.263 197.464 201.233 191.411 196.349 190.567C191.465 189.722 186.578 194.406 185.433 201.028C184.288 207.65 187.318 213.703 192.202 214.548C197.086 215.392 201.973 210.709 203.118 204.086Z" fill="#0CBC8B"/>
<path d="M209.144 233.272C209.131 233.272 209.118 233.271 209.105 233.27C209.022 233.259 208.946 233.217 208.894 233.15C208.843 233.084 208.819 233.001 208.83 232.917L214.845 184.077C214.911 183.545 215.129 183.043 215.473 182.632C215.817 182.221 216.272 181.918 216.784 181.759C217.296 181.601 217.843 181.593 218.359 181.738C218.875 181.883 219.338 182.173 219.693 182.575L226.569 190.362C226.598 190.393 226.62 190.429 226.635 190.469C226.649 190.509 226.656 190.551 226.654 190.593C226.651 190.635 226.641 190.677 226.623 190.715C226.604 190.753 226.578 190.787 226.547 190.815C226.515 190.843 226.478 190.864 226.438 190.877C226.398 190.891 226.356 190.896 226.313 190.893C226.271 190.889 226.23 190.878 226.193 190.858C226.155 190.839 226.122 190.812 226.095 190.78L219.219 182.992C218.945 182.682 218.587 182.457 218.188 182.345C217.789 182.233 217.366 182.239 216.971 182.361C216.575 182.484 216.223 182.718 215.957 183.036C215.691 183.354 215.523 183.742 215.472 184.153L209.457 232.995C209.447 233.072 209.41 233.142 209.353 233.193C209.295 233.244 209.221 233.272 209.144 233.272Z" fill="#494949"/>
<path d="M233.62 194.691C236.019 190.354 233.197 184.201 227.316 180.948C221.435 177.695 214.723 178.574 212.325 182.911C209.926 187.248 212.748 193.4 218.629 196.653C224.51 199.906 231.222 199.027 233.62 194.691Z" fill="#0CBC8B"/>
<path opacity="0.2" d="M233.884 223.435C237.77 220.359 237.539 213.593 233.368 208.324C229.197 203.054 222.665 201.276 218.779 204.352C214.893 207.428 215.124 214.193 219.295 219.463C223.466 224.732 229.998 226.51 233.884 223.435Z" fill="white"/>
<path opacity="0.5" d="M203.118 204.086C204.263 197.464 201.233 191.411 196.349 190.567C191.465 189.722 186.578 194.406 185.433 201.028C184.288 207.65 187.318 213.703 192.202 214.548C197.086 215.392 201.973 210.709 203.118 204.086Z" fill="white"/>
<path opacity="0.5" d="M233.62 194.691C236.019 190.354 233.197 184.201 227.316 180.948C221.435 177.695 214.723 178.574 212.325 182.911C209.926 187.248 212.748 193.4 218.629 196.653C224.51 199.906 231.222 199.027 233.62 194.691Z" fill="white"/>
<path d="M216.837 274.714H201.449L198.899 225.48H219.387L216.837 274.714Z" fill="#292A2E"/>
<path opacity="0.3" d="M216.837 274.714H201.449L198.899 225.48H219.387L216.837 274.714Z" fill="white"/>
<path d="M233.884 223.591C233.86 223.591 233.837 223.586 233.815 223.575C233.794 223.565 233.775 223.55 233.76 223.531L218.656 204.449C218.643 204.432 218.634 204.414 218.628 204.394C218.622 204.374 218.621 204.353 218.623 204.332C218.626 204.312 218.632 204.292 218.642 204.274C218.652 204.256 218.666 204.24 218.682 204.227C218.698 204.214 218.717 204.204 218.737 204.199C218.757 204.193 218.778 204.191 218.798 204.194C218.819 204.196 218.839 204.202 218.857 204.213C218.875 204.223 218.891 204.236 218.904 204.252L234.009 223.335C234.027 223.358 234.039 223.386 234.042 223.416C234.046 223.445 234.04 223.475 234.028 223.502C234.015 223.529 233.994 223.551 233.969 223.567C233.944 223.583 233.915 223.591 233.885 223.591H233.884Z" fill="white"/>
<path d="M232.616 196.22C232.582 196.22 232.55 196.209 232.523 196.189L213.193 182.075C213.177 182.063 213.162 182.048 213.152 182.03C213.141 182.012 213.134 181.993 213.13 181.972C213.127 181.952 213.128 181.931 213.133 181.911C213.138 181.89 213.147 181.871 213.159 181.855C213.171 181.838 213.187 181.824 213.204 181.813C213.222 181.802 213.242 181.795 213.262 181.792C213.283 181.789 213.304 181.789 213.324 181.794C213.344 181.799 213.363 181.808 213.38 181.82L232.709 195.934C232.736 195.953 232.756 195.981 232.766 196.013C232.776 196.045 232.776 196.079 232.766 196.111C232.756 196.142 232.735 196.17 232.708 196.19C232.681 196.209 232.649 196.22 232.615 196.22H232.616Z" fill="white"/>
<path d="M191.417 214.343C191.403 214.343 191.389 214.341 191.376 214.338C191.336 214.327 191.301 214.301 191.28 214.264C191.259 214.228 191.253 214.185 191.264 214.145L197.417 191.091C197.422 191.07 197.431 191.051 197.444 191.034C197.456 191.017 197.472 191.003 197.49 190.992C197.508 190.981 197.528 190.974 197.549 190.971C197.57 190.968 197.591 190.97 197.612 190.975C197.632 190.98 197.651 190.99 197.668 191.003C197.684 191.016 197.698 191.032 197.709 191.05C197.719 191.069 197.725 191.089 197.728 191.11C197.73 191.131 197.728 191.152 197.722 191.172L191.569 214.226C191.56 214.26 191.541 214.289 191.513 214.31C191.486 214.332 191.452 214.343 191.417 214.343Z" fill="white"/>
<path d="M174.492 16.4381H86.1044C78.7923 16.4381 72.8646 22.3658 72.8646 29.6779V237.458C72.8646 244.77 78.7923 250.698 86.1044 250.698H174.492C181.805 250.698 187.732 244.77 187.732 237.458V29.6779C187.732 22.3658 181.805 16.4381 174.492 16.4381Z" fill="#292A2E"/>
<path d="M174.451 20.5722H86.1458C81.1249 20.5722 77.0547 24.6424 77.0547 29.6633V237.164C77.0547 242.184 81.1249 246.255 86.1458 246.255H174.451C179.472 246.255 183.542 242.184 183.542 237.164V29.6633C183.542 24.6424 179.472 20.5722 174.451 20.5722Z" fill="white"/>
<path d="M108.489 18.863H152.108V23.3764C152.108 24.6706 151.593 25.9117 150.678 26.8267C149.763 27.7418 148.521 28.2558 147.227 28.2558H113.371C112.077 28.2558 110.835 27.7416 109.92 26.8262C109.004 25.9109 108.49 24.6695 108.49 23.375V18.863H108.489Z" fill="#292A2E"/>
<path d="M147.242 63.1687H113.355C109.009 63.1687 105.486 66.6916 105.486 71.0374V104.925C105.486 109.27 109.009 112.793 113.355 112.793H147.242C151.588 112.793 155.111 109.27 155.111 104.925V71.0374C155.111 66.6916 151.588 63.1687 147.242 63.1687Z" fill="white"/>
<path d="M147.242 113.141H113.355C111.177 113.139 109.088 112.272 107.548 110.732C106.007 109.192 105.141 107.103 105.138 104.925V71.0374C105.141 68.859 106.007 66.7705 107.548 65.2301C109.088 63.6897 111.177 62.8233 113.355 62.8208H147.242C149.42 62.8233 151.509 63.6897 153.049 65.2301C154.589 66.7705 155.456 68.859 155.458 71.0374V104.925C155.456 107.103 154.59 109.192 153.049 110.732C151.509 112.272 149.42 113.139 147.242 113.141ZM113.355 63.5167C111.361 63.519 109.449 64.3121 108.04 65.722C106.63 67.1319 105.837 69.0435 105.834 71.0374V104.925C105.837 106.919 106.63 108.83 108.04 110.24C109.449 111.65 111.361 112.443 113.355 112.445H147.242C149.236 112.443 151.147 111.65 152.557 110.24C153.967 108.83 154.76 106.919 154.763 104.925V71.0374C154.76 69.0435 153.967 67.1318 152.557 65.7219C151.147 64.312 149.236 63.5189 147.242 63.5167H113.355Z" fill="#292A2E"/>
<path opacity="0.6" d="M144.989 153.384V159.869H97.065C96.2049 159.869 95.38 159.528 94.7719 158.92C94.1637 158.311 93.822 157.487 93.822 156.626C93.822 155.766 94.1637 154.942 94.7719 154.333C95.38 153.725 96.2049 153.384 97.065 153.384H144.989Z" fill="#367CFF"/>
<path d="M163.531 160.218H97.066C96.5914 160.223 96.1206 160.133 95.6808 159.955C95.2409 159.777 94.8408 159.513 94.5036 159.179C94.1663 158.845 93.8986 158.447 93.7159 158.009C93.5332 157.571 93.4391 157.101 93.4391 156.627C93.4391 156.152 93.5332 155.682 93.7159 155.244C93.8986 154.806 94.1663 154.409 94.5036 154.075C94.8408 153.741 95.2409 153.477 95.6808 153.298C96.1206 153.12 96.5914 153.031 97.066 153.035H163.531C164.477 153.045 165.382 153.427 166.048 154.1C166.714 154.772 167.087 155.68 167.087 156.627C167.087 157.573 166.714 158.481 166.048 159.154C165.382 159.826 164.477 160.209 163.531 160.218ZM97.066 153.731C96.6831 153.727 96.3032 153.799 95.9482 153.942C95.5932 154.086 95.2702 154.299 94.998 154.568C94.7257 154.837 94.5096 155.158 94.3621 155.511C94.2146 155.865 94.1386 156.244 94.1386 156.627C94.1386 157.01 94.2146 157.389 94.3621 157.742C94.5096 158.096 94.7257 158.416 94.998 158.685C95.2702 158.955 95.5932 159.167 95.9482 159.311C96.3032 159.455 96.6831 159.526 97.066 159.522H163.531C164.293 159.514 165.022 159.205 165.558 158.663C166.094 158.121 166.395 157.389 166.395 156.627C166.395 155.864 166.094 155.132 165.558 154.59C165.022 154.048 164.293 153.74 163.531 153.731H97.066Z" fill="#292A2E"/>
<path opacity="0.8" d="M153.533 181.988H107.064C104.326 181.988 102.106 184.208 102.106 186.946V200.258C102.106 202.996 104.326 205.216 107.064 205.216H153.533C156.271 205.216 158.491 202.996 158.491 200.258V186.946C158.491 184.208 156.271 181.988 153.533 181.988Z" fill="#367CFF"/>
<path d="M158.49 200.259V202.541C158.49 203.855 157.968 205.116 157.038 206.046C156.108 206.975 154.847 207.497 153.533 207.497H107.063C105.749 207.497 104.488 206.975 103.558 206.046C102.629 205.116 102.107 203.855 102.107 202.541V200.259C102.107 201.574 102.629 202.835 103.558 203.764C104.488 204.694 105.749 205.216 107.063 205.216H153.533C154.847 205.216 156.108 204.694 157.038 203.764C157.967 202.835 158.49 201.574 158.49 200.259Z" fill="#367CFF"/>
<path d="M127.2 200.464C127.006 200.464 126.818 200.395 126.671 200.268L121.352 195.71C121.27 195.641 121.204 195.556 121.155 195.46C121.107 195.365 121.078 195.261 121.069 195.154C121.061 195.047 121.074 194.94 121.107 194.838C121.141 194.737 121.194 194.643 121.263 194.561C121.333 194.48 121.418 194.413 121.513 194.365C121.608 194.317 121.713 194.287 121.819 194.279C121.926 194.271 122.033 194.284 122.135 194.317C122.236 194.35 122.331 194.403 122.412 194.473L127.132 198.518L138.114 186.502C138.186 186.423 138.273 186.359 138.37 186.314C138.467 186.268 138.572 186.242 138.679 186.238C138.785 186.233 138.892 186.249 138.993 186.286C139.093 186.322 139.186 186.378 139.265 186.45C139.344 186.522 139.408 186.609 139.453 186.706C139.498 186.803 139.524 186.908 139.529 187.015C139.534 187.122 139.517 187.228 139.481 187.329C139.444 187.43 139.389 187.522 139.316 187.601L127.802 200.199C127.726 200.283 127.633 200.35 127.529 200.395C127.426 200.441 127.314 200.465 127.2 200.464Z" fill="white"/>
<path d="M130.298 100.443C130.206 100.443 130.118 100.407 130.052 100.341C129.987 100.276 129.95 100.188 129.95 100.095V75.8668C129.95 75.7745 129.987 75.686 130.052 75.6207C130.118 75.5555 130.206 75.5188 130.298 75.5188C130.391 75.5188 130.479 75.5555 130.544 75.6207C130.61 75.686 130.646 75.7745 130.646 75.8668V100.095C130.646 100.188 130.61 100.276 130.544 100.341C130.479 100.407 130.391 100.443 130.298 100.443Z" fill="#292A2E"/>
<path d="M142.413 88.3292H118.184C118.092 88.3292 118.003 88.2925 117.938 88.2272C117.873 88.162 117.836 88.0735 117.836 87.9812C117.836 87.8889 117.873 87.8004 117.938 87.7352C118.003 87.6699 118.092 87.6332 118.184 87.6332H142.413C142.505 87.6332 142.594 87.6699 142.659 87.7352C142.724 87.8004 142.761 87.8889 142.761 87.9812C142.761 88.0735 142.724 88.162 142.659 88.2272C142.594 88.2925 142.505 88.3292 142.413 88.3292Z" fill="#292A2E"/>
<path d="M59.4262 103.576L63.3101 97.534C63.3954 97.4012 63.5075 97.2877 63.6391 97.2006C63.7707 97.1135 63.9191 97.0548 64.0747 97.0282C64.2302 97.0016 64.3896 97.0076 64.5427 97.046C64.6958 97.0844 64.8393 97.1542 64.9639 97.2511C65.1883 97.4371 65.3357 97.6998 65.3775 97.9882C65.4193 98.2767 65.3525 98.5704 65.1901 98.8124L64.3574 100.108L68.8461 97.2358C69.3395 96.9077 70.1547 96.8207 70.4863 97.3986C70.6285 97.6127 70.6939 97.8686 70.6719 98.1246C70.6499 98.3806 70.5418 98.6215 70.3652 98.8082C70.3694 98.812 70.3731 98.8162 70.3764 98.8207C70.3785 98.8247 70.3801 98.8289 70.3812 98.8333L71.1426 98.3273C71.2836 98.2337 71.4437 98.1727 71.6112 98.1488C71.7788 98.1248 71.9496 98.1386 72.1111 98.1891C72.2727 98.2396 72.421 98.3255 72.5451 98.4405C72.6693 98.5556 72.7662 98.6969 72.8288 98.8541C72.9224 99.1037 72.9275 99.3779 72.8432 99.6308C72.7589 99.8838 72.5903 100.1 72.3656 100.244L72.0417 100.459C72.044 100.471 72.044 100.484 72.0417 100.496C72.2942 100.401 72.5722 100.399 72.8259 100.491C73.0796 100.582 73.2925 100.761 73.4266 100.995C73.5656 101.256 73.6015 101.559 73.5268 101.844C73.4522 102.13 73.2727 102.377 73.024 102.536L72.2195 103.071C72.2362 103.071 72.2526 103.076 72.2672 103.084C72.2819 103.092 72.2944 103.103 72.3037 103.117C72.3142 103.134 72.3194 103.153 72.3187 103.173C72.567 103.152 72.8155 103.212 73.0262 103.345C73.2369 103.478 73.3979 103.677 73.4847 103.911C73.5707 104.158 73.5708 104.427 73.4849 104.675C73.3989 104.922 73.232 105.133 73.0111 105.274L66.2239 109.785C65.2743 110.416 64.1579 110.75 63.0178 110.742C61.8776 110.735 60.7657 110.387 59.8246 109.743C59.0133 109.188 58.4504 108.339 58.2555 107.375C58.0606 106.412 58.249 105.41 58.7807 104.583L59.4262 103.576Z" fill="#E98862"/>
<g opacity="0.2">
<path d="M65.9378 101.673C65.9531 101.695 65.9767 101.711 66.0036 101.717C66.0305 101.722 66.0585 101.717 66.0816 101.702L70.3472 98.9651C70.3705 98.9501 70.387 98.9263 70.3929 98.8992C70.3988 98.872 70.3937 98.8436 70.3786 98.8202C70.3636 98.7968 70.3399 98.7803 70.3127 98.7744C70.2855 98.7685 70.2571 98.7737 70.2337 98.7887L65.9681 101.526C65.9565 101.533 65.9464 101.543 65.9386 101.554C65.9307 101.565 65.9251 101.578 65.9222 101.592C65.9192 101.605 65.919 101.619 65.9214 101.632C65.9239 101.646 65.929 101.659 65.9365 101.67L65.9378 101.673Z" fill="#0C0C0C"/>
</g>
<g opacity="0.2">
<path d="M67.0916 103.588C67.1069 103.611 67.1305 103.627 67.1574 103.633C67.1843 103.638 67.2123 103.633 67.2353 103.618L71.9957 100.561C72.0074 100.554 72.0175 100.544 72.0254 100.533C72.0333 100.522 72.0389 100.509 72.0419 100.495C72.0448 100.482 72.0451 100.468 72.0426 100.454C72.0401 100.441 72.0349 100.428 72.0274 100.416C72.0117 100.393 71.9879 100.378 71.961 100.372C71.9341 100.366 71.906 100.371 71.8823 100.385L67.1209 103.44C67.1092 103.448 67.0991 103.457 67.0912 103.469C67.0833 103.48 67.0777 103.493 67.0747 103.506C67.0718 103.52 67.0715 103.534 67.074 103.547C67.0765 103.561 67.0817 103.574 67.0892 103.585L67.0916 103.588Z" fill="#0C0C0C"/>
</g>
<g opacity="0.2">
<path d="M68.3311 105.668C68.3463 105.691 68.3699 105.707 68.3967 105.712C68.4235 105.718 68.4514 105.713 68.4744 105.698L72.272 103.262C72.2954 103.247 72.3119 103.223 72.3178 103.196C72.3237 103.169 72.3185 103.141 72.3035 103.117C72.2885 103.094 72.2647 103.077 72.2376 103.071C72.2104 103.065 72.182 103.071 72.1586 103.086L68.361 105.521C68.3493 105.529 68.3393 105.538 68.3314 105.55C68.3235 105.561 68.3179 105.574 68.315 105.587C68.3121 105.601 68.3119 105.615 68.3144 105.628C68.3169 105.642 68.3221 105.655 68.3297 105.666L68.3311 105.668Z" fill="#0C0C0C"/>
</g>
<path d="M25.9051 93.7761L43.8774 122.641L32.5873 120.805L58.8601 100.505L68.4338 112.895L42.1609 133.195C41.3478 133.823 40.419 134.285 39.4273 134.555C38.4357 134.824 37.4007 134.895 36.3815 134.765C35.3622 134.634 34.3787 134.304 33.4871 133.793C32.5955 133.282 31.8132 132.601 31.185 131.788C31.1386 131.727 31.0922 131.665 31.0458 131.604L30.8697 131.36L10.999 103.767L25.9051 93.7761Z" fill="#367CFF"/>
<path d="M20.828 262.089C20.828 262.089 22.1217 268.796 28.4009 269.169C34.6801 269.543 33.3182 274.545 33.3182 274.545H9.3252V262.557L20.828 262.089Z" fill="#367CFF"/>
<path d="M13.4269 139.755C13.4269 139.755 13.5024 137.739 13.4864 142.313C13.4269 159.37 13.1308 178.854 12.4078 190.255C11.2452 208.584 8.26428 266.369 8.26428 266.369L24.0316 266.237L39.3139 139.062L13.4269 139.755Z" fill="#262626"/>
<path d="M31.2325 159.87C31.2325 159.87 31.886 172.249 32.0071 175.155C32.2875 181.876 32.3846 188.834 32.3846 196.724L34.8701 176.041C34.8701 176.041 33.0513 169.561 31.2325 159.87Z" fill="#0A0A0A"/>
<path d="M48.8983 262.089C48.8983 262.089 50.192 268.796 56.4709 269.169C62.7498 269.543 61.3883 274.545 61.3883 274.545H37.3935V262.557L48.8983 262.089Z" fill="#367CFF"/>
<path d="M56.5325 141.08C56.5325 141.08 57.9292 199.379 57.7246 202.228L51.8609 265.928L36.3542 266.214L37.8653 199.924C37.8653 199.924 36.7992 181.638 32.3812 164.658C30.1207 155.944 28.7603 147.02 28.3212 138.028L56.5325 141.08Z" fill="#262626"/>
<path d="M13.2572 139.754L13.2057 139.756C13.2057 139.756 13.2415 138.762 13.2572 139.754Z" fill="#333333"/>
<path d="M58.7522 108.72C58.4272 112.54 56.8454 136.374 56.5326 141.08H13.4444C13.2008 136.835 12.1082 118.278 11.1851 109.979C10.3041 102.06 10.1847 97.9609 11.452 95.6199C13.5227 91.7923 17.5708 89.7157 21.4289 89.1934C23.785 88.8747 27.3282 88.6461 27.3282 88.6461C27.3282 88.6461 27.6278 94.7155 34.7818 95.0527C44.5201 95.512 43.8701 88.6458 43.9181 88.6458C45.4957 88.6458 53.4605 89.3883 55.4918 90.9513C59.8329 94.2907 59.4425 100.625 58.7522 108.72Z" fill="#367CFF"/>
<path d="M47.8678 88.865C47.8226 88.8591 46.5804 93.5377 36.8765 92.8098C30.1592 92.3066 28.5214 87.7341 28.3672 87.7341C29.0917 87.5803 30.2678 87.421 30.5893 87.2487C31.1451 86.9927 31.6342 86.6118 32.0186 86.1358C32.403 85.6597 32.6723 85.1013 32.8054 84.5041C33.1089 83.3429 33.2633 78.8731 33.2633 76.6305L43.5991 78.9531C43.455 81.4827 42.4466 87.3476 45.9812 88.3855C46.5696 88.5567 47.2028 88.715 47.8678 88.865Z" fill="#E98862"/>
<path d="M43.242 83.9264C39.1671 84.2479 33.9324 82.5276 32.9383 77.0912L32.0413 72.185C31.0468 66.7485 33.0963 61.819 38.2151 60.883C43.3339 59.9466 47.9659 63.6541 48.96 69.0906L49.3574 71.2625C49.7387 73.351 50.5122 83.353 43.242 83.9264Z" fill="#E98862"/>
<path d="M47.0201 78.935C46.2894 75.2599 45.9533 72.8082 45.9922 70.2211C47.0225 68.4142 46.7515 66.34 46.5173 65.444C47.2268 65.8946 48.061 66.1084 48.8998 66.0547C48.8998 66.0547 47.1948 59.217 41.4051 57.377C40.3404 56.9626 37.6214 56.4393 34.0114 56.9344C30.9407 57.3554 23.3719 59.6513 22.2904 68.1734V68.1783C22.2557 68.4608 21.5281 76.3121 20.0792 80.0784C18.1306 85.1422 15.3971 86.7157 15.4663 92.5582C15.5547 100.006 33.6645 100.784 37.7049 100.511C46.0385 99.9492 50.6903 97.2094 50.7505 91.7934C50.8173 85.7244 48.4836 86.2881 47.0201 78.935Z" fill="#0A0A0A"/>
<path d="M93.5479 103.576L97.4318 97.534C97.5171 97.4012 97.6292 97.2877 97.7609 97.2006C97.8925 97.1135 98.0408 97.0548 98.1964 97.0282C98.352 97.0016 98.5114 97.0076 98.6645 97.046C98.8176 97.0844 98.961 97.1542 99.0856 97.2511C99.3101 97.437 99.4575 97.6997 99.4994 97.9881C99.5412 98.2766 99.4745 98.5703 99.3122 98.8124L98.4791 100.108L102.968 97.2358C103.461 96.9077 104.277 96.8207 104.608 97.3986C104.75 97.6127 104.816 97.8686 104.794 98.1246C104.772 98.3806 104.664 98.6215 104.487 98.8082C104.491 98.812 104.495 98.8162 104.498 98.8207C104.5 98.8248 104.502 98.829 104.503 98.8333L105.264 98.3273C105.405 98.2337 105.565 98.1727 105.733 98.1488C105.901 98.1248 106.071 98.1386 106.233 98.1891C106.394 98.2396 106.543 98.3255 106.667 98.4405C106.791 98.5556 106.888 98.6969 106.951 98.8541C107.044 99.1037 107.049 99.3779 106.965 99.6308C106.881 99.8838 106.712 100.1 106.487 100.244L106.163 100.459C106.166 100.471 106.166 100.484 106.163 100.496C106.416 100.401 106.694 100.399 106.947 100.491C107.201 100.582 107.414 100.761 107.548 100.995C107.687 101.256 107.723 101.559 107.648 101.844C107.574 102.13 107.394 102.377 107.145 102.536L106.341 103.071C106.358 103.071 106.374 103.076 106.389 103.084C106.403 103.092 106.416 103.103 106.425 103.117C106.436 103.134 106.441 103.153 106.44 103.173C106.688 103.152 106.937 103.212 107.148 103.345C107.358 103.478 107.519 103.677 107.606 103.911C107.692 104.158 107.692 104.427 107.606 104.675C107.52 104.922 107.353 105.133 107.132 105.274L100.345 109.785C99.3957 110.416 98.2793 110.75 97.1392 110.742C95.999 110.735 94.8871 110.387 93.946 109.743C93.1347 109.188 92.5718 108.339 92.3769 107.375C92.182 106.412 92.3704 105.41 92.9021 104.583L93.5479 103.576Z" fill="#E98862"/>
<g opacity="0.2">
<path d="M100.058 101.673C100.073 101.695 100.097 101.711 100.124 101.717C100.151 101.722 100.179 101.717 100.202 101.702L104.467 98.9651C104.479 98.9577 104.489 98.948 104.497 98.9367C104.505 98.9254 104.51 98.9126 104.513 98.8992C104.516 98.8857 104.516 98.8718 104.514 98.8583C104.511 98.8447 104.506 98.8318 104.499 98.8202C104.491 98.8086 104.482 98.7986 104.471 98.7907C104.459 98.7829 104.446 98.7773 104.433 98.7744C104.42 98.7715 104.406 98.7713 104.392 98.7737C104.379 98.7762 104.366 98.7812 104.354 98.7887L100.088 101.526C100.077 101.533 100.067 101.543 100.059 101.554C100.051 101.565 100.045 101.578 100.042 101.592C100.04 101.605 100.039 101.619 100.042 101.632C100.044 101.646 100.049 101.659 100.057 101.67L100.058 101.673Z" fill="#0C0C0C"/>
</g>
<g opacity="0.2">
<path d="M101.213 103.588C101.229 103.611 101.252 103.627 101.279 103.633C101.306 103.638 101.334 103.633 101.357 103.618L106.117 100.561C106.129 100.554 106.139 100.544 106.147 100.533C106.155 100.522 106.161 100.509 106.164 100.495C106.167 100.482 106.167 100.468 106.164 100.454C106.162 100.441 106.157 100.428 106.149 100.416C106.133 100.393 106.11 100.378 106.083 100.372C106.056 100.366 106.028 100.371 106.004 100.385L101.244 103.439C101.232 103.447 101.222 103.456 101.214 103.467C101.206 103.479 101.2 103.492 101.198 103.505C101.195 103.519 101.194 103.533 101.197 103.546C101.199 103.56 101.204 103.573 101.212 103.584L101.213 103.588Z" fill="#0C0C0C"/>
</g>
<g opacity="0.2">
<path d="M102.453 105.668C102.468 105.691 102.492 105.707 102.518 105.712C102.545 105.718 102.573 105.713 102.596 105.698L106.394 103.262C106.417 103.247 106.434 103.223 106.439 103.196C106.445 103.169 106.44 103.141 106.425 103.117C106.41 103.094 106.386 103.077 106.359 103.071C106.332 103.065 106.304 103.071 106.28 103.086L102.483 105.521C102.471 105.529 102.461 105.538 102.453 105.55C102.445 105.561 102.44 105.574 102.437 105.587C102.434 105.601 102.434 105.615 102.436 105.628C102.439 105.642 102.444 105.655 102.451 105.666L102.453 105.668Z" fill="#0C0C0C"/>
</g>
<path d="M56.7633 92.4027L77.7597 122.303L66.71 120.805L92.9824 100.505L102.556 112.895L76.2833 133.195C74.6602 134.45 72.6093 135.016 70.5723 134.774C68.5353 134.531 66.6751 133.498 65.3923 131.897L65.2322 131.697L42.409 103.168L56.7633 92.4027Z" fill="#367CFF"/>
<path d="M0.347957 274.893H229.352C229.444 274.893 229.533 274.857 229.598 274.791C229.663 274.726 229.7 274.638 229.7 274.545C229.7 274.453 229.663 274.364 229.598 274.299C229.533 274.234 229.444 274.197 229.352 274.197H0.347957C0.255673 274.197 0.167169 274.234 0.101914 274.299C0.0366596 274.364 0 274.453 0 274.545C0 274.638 0.0366596 274.726 0.101914 274.791C0.167169 274.857 0.255673 274.893 0.347957 274.893Z" fill="#262626"/>
</svg>
