<svg width="110" height="148" viewBox="0 0 110 148" fill="none" xmlns="http://www.w3.org/2000/svg">
<mask id="mask0_3_44" style="mask-type:luminance" maskUnits="userSpaceOnUse" x="8" y="0" width="89" height="89">
<path d="M97 0H8V88.9972H97V0Z" fill="white"/>
</mask>
<g mask="url(#mask0_3_44)">
<path d="M88.4888 18.3284C87.2087 16.5715 85.8029 14.91 84.282 13.3569C84.1738 13.2481 84.0713 13.1399 83.9632 13.0311C79.156 8.21916 73.3105 4.57273 66.8748 2.37193V60.7439C66.8749 62.7007 66.4895 64.6382 65.7408 66.4459C64.992 68.2537 63.8946 69.8962 62.511 71.2796C61.1274 72.6636 59.4848 73.7611 57.6771 74.5097C55.8693 75.2582 53.9317 75.6437 51.9751 75.6437H43.0931V88.0022C46.1847 88.6615 49.337 88.9944 52.4982 88.9944C60.7067 88.9951 68.7555 86.7256 75.7543 82.4367C82.7533 78.1477 88.4291 72.0057 92.1542 64.6914C95.8793 57.3769 97.5084 49.1744 96.8616 40.9915C96.2149 32.8085 93.317 24.964 88.4888 18.3256V18.3284Z" fill="#F5F5F5"/>
<path d="M52.4982 7.3827e-09C44.29 0.000781646 36.2419 2.27168 29.2439 6.56156C22.246 10.8514 16.5708 16.9932 12.846 24.3076C9.12118 31.622 7.49186 39.8241 8.13821 48.0068C8.78455 56.1895 11.6814 64.034 16.5084 70.6729C17.7914 72.4291 19.1994 74.0905 20.7215 75.6437C20.8261 75.749 20.9287 75.8544 21.0333 75.9667C25.8395 80.7781 31.6833 84.4253 38.1168 86.6287V28.2511C38.1185 24.2996 39.6893 20.5105 42.484 17.717C45.2788 14.9235 49.0685 13.3542 53.02 13.3542H61.9019V0.9957C58.8112 0.333693 55.6591 -5.73151e-05 52.4982 7.3827e-09Z" fill="#ACADB0"/>
</g>
<path d="M5.4 134C4.78667 134 4.25333 133.773 3.8 133.32C3.37333 132.867 3.16 132.333 3.16 131.72V107.08C3.16 106.467 3.37333 105.933 3.8 105.48C4.25333 105.027 4.78667 104.8 5.4 104.8H18.6C19.2133 104.8 19.7467 105.027 20.2 105.48C20.6533 105.933 20.88 106.467 20.88 107.08C20.88 107.693 20.6533 108.227 20.2 108.68C19.7467 109.107 19.2133 109.32 18.6 109.32H9.08C8.86667 109.32 8.76 109.44 8.76 109.68V116.68C8.76 116.893 8.86667 117 9.08 117H17.92C18.5067 117 19.0133 117.213 19.44 117.64C19.8667 118.04 20.08 118.547 20.08 119.16C20.08 119.773 19.8667 120.293 19.44 120.72C19.0133 121.12 18.5067 121.32 17.92 121.32H9.08C8.86667 121.32 8.76 121.427 8.76 121.64V131.72C8.76 132.333 8.53333 132.867 8.08 133.32C7.62667 133.773 7.09333 134 6.48 134H5.4ZM28.8375 134C28.2242 134 27.6908 133.773 27.2375 133.32C26.8108 132.867 26.5975 132.333 26.5975 131.72V107.08C26.5975 106.467 26.8108 105.933 27.2375 105.48C27.6908 105.027 28.2242 104.8 28.8375 104.8H30.1175C30.7308 104.8 31.2642 105.027 31.7175 105.48C32.1708 105.933 32.3975 106.467 32.3975 107.08V129C32.3975 129.24 32.5042 129.36 32.7175 129.36H42.9975C43.6108 129.36 44.1308 129.587 44.5575 130.04C45.0108 130.467 45.2375 130.987 45.2375 131.6V131.72C45.2375 132.333 45.0108 132.867 44.5575 133.32C44.1308 133.773 43.6108 134 42.9975 134H28.8375ZM53.6228 134C53.0095 134 52.4761 133.773 52.0228 133.32C51.5695 132.867 51.3428 132.333 51.3428 131.72V107.08C51.3428 106.467 51.5695 105.933 52.0228 105.48C52.4761 105.027 53.0095 104.8 53.6228 104.8H55.2228C55.8361 104.8 56.3695 105.027 56.8228 105.48C57.2761 105.933 57.5028 106.467 57.5028 107.08V131.72C57.5028 132.333 57.2761 132.867 56.8228 133.32C56.3695 133.773 55.8361 134 55.2228 134H53.6228ZM70.1253 109.36V119C70.1253 119.187 70.232 119.307 70.4453 119.36C71.4586 119.493 72.4453 119.56 73.4053 119.56C75.5653 119.56 77.2053 119.093 78.3253 118.16C79.472 117.2 80.0453 115.84 80.0453 114.08C80.0453 110.533 77.832 108.76 73.4053 108.76C72.4453 108.76 71.4586 108.827 70.4453 108.96C70.232 109.013 70.1253 109.147 70.1253 109.36ZM66.8453 134C66.232 134 65.6986 133.773 65.2453 133.32C64.8186 132.867 64.6053 132.333 64.6053 131.72V107.28C64.6053 106.64 64.8186 106.067 65.2453 105.56C65.672 105.053 66.2053 104.773 66.8453 104.72C69.112 104.507 71.2986 104.4 73.4053 104.4C77.4053 104.4 80.4053 105.2 82.4053 106.8C84.4053 108.373 85.4053 110.667 85.4053 113.68C85.4053 117.013 84.432 119.533 82.4853 121.24C80.5653 122.947 77.712 123.8 73.9253 123.8C73.0453 123.8 71.8853 123.747 70.4453 123.64C70.232 123.64 70.1253 123.747 70.1253 123.96V131.72C70.1253 132.333 69.8986 132.867 69.4453 133.32C68.992 133.773 68.4586 134 67.8453 134H66.8453ZM96.95 109.76L93.43 122.32C93.4033 122.4 93.4167 122.48 93.47 122.56C93.5233 122.64 93.59 122.68 93.67 122.68H100.31C100.39 122.68 100.457 122.64 100.51 122.56C100.563 122.48 100.577 122.4 100.55 122.32L97.03 109.76C97.03 109.733 97.0167 109.72 96.99 109.72C96.9633 109.72 96.95 109.733 96.95 109.76ZM86.59 134C86.03 134 85.59 133.773 85.27 133.32C84.95 132.867 84.8833 132.373 85.07 131.84L93.35 106.96C93.59 106.32 93.9767 105.8 94.51 105.4C95.07 105 95.6833 104.8 96.35 104.8H97.79C98.4833 104.8 99.0967 105 99.63 105.4C100.19 105.8 100.577 106.32 100.79 106.96L109.07 131.84C109.257 132.373 109.19 132.867 108.87 133.32C108.55 133.773 108.11 134 107.55 134H106.11C105.47 134 104.87 133.8 104.31 133.4C103.777 132.973 103.417 132.44 103.23 131.8L101.95 127.28C101.923 127.067 101.777 126.96 101.51 126.96H92.47C92.23 126.96 92.0833 127.067 92.03 127.28L90.75 131.8C90.59 132.44 90.23 132.973 89.67 133.4C89.1367 133.8 88.5367 134 87.87 134H86.59Z" fill="white"/>
</svg>
